<svg width="29" height="30" viewBox="0 0 29 30" fill="none" xmlns="http://www.w3.org/2000/svg">
<path fill-rule="evenodd" clip-rule="evenodd" d="M22.9403 10.1424C23.9971 10.1424 24.8523 11.0002 24.8523 12.0545C24.8523 13.1125 23.9958 13.9678 22.9403 13.9678C21.8861 13.9678 21.0296 13.1125 21.0296 12.0545C21.027 10.9989 21.8848 10.1424 22.9403 10.1424ZM20.9936 28.4138C22.8004 29.1599 25.009 29.6954 27.7531 29.6954C28.3528 29.6954 28.8395 29.2087 28.8395 28.6103C28.8395 28.0106 28.3528 27.5227 27.7531 27.5227C23.87 27.5227 21.2081 26.6084 19.8431 24.8068C18.1892 22.62 18.9802 19.7218 18.9866 19.6961C19.0803 19.3699 19.0161 19.0155 18.812 18.742C18.6065 18.4672 18.2842 18.308 17.9426 18.308H14.9096L17.438 13.0239C17.5035 12.8878 17.5381 12.7376 17.5433 12.5835C17.6267 9.09974 18.6463 6.44808 20.5725 4.70685C23.4873 2.0706 27.5926 2.33769 27.6658 2.34283C28.2578 2.39034 28.7868 1.94476 28.8356 1.34765C28.8831 0.751834 28.4363 0.226639 27.8404 0.179128C27.6722 0.165002 24.3965 -0.0712712 21.2235 1.62117C20.6932 2.02566 19.3333 2.91554 19.3333 2.91554C19.2678 2.97075 19.201 3.02083 19.1355 3.07862C16.7857 5.19352 15.5208 8.29461 15.3796 12.2959L12.2091 18.9256C12.0486 19.2634 12.0705 19.6563 12.2695 19.9722C12.4685 20.2881 12.8139 20.4807 13.1876 20.4807H16.6611C16.5276 21.8906 16.6277 24.1378 18.098 26.0947C18.3792 26.471 18.7002 26.8138 19.0547 27.1323C19.0547 27.1323 19.8957 27.9605 20.9936 28.4138Z" fill="#DC314F"/>
<path fill-rule="evenodd" clip-rule="evenodd" d="M22.9403 10.3043C22.4716 10.3043 22.0299 10.4879 21.6986 10.818C21.3686 11.148 21.1888 11.5884 21.1888 12.0545C21.1888 13.0202 21.9747 13.8073 22.9403 13.8073C23.906 13.8073 24.6918 13.0202 24.6918 12.0545C24.6918 11.0889 23.906 10.3043 22.9403 10.3043ZM22.9403 14.1284C21.7975 14.1284 20.8678 13.1974 20.8678 12.0545C20.8665 11.5024 21.0823 10.9823 21.4713 10.592C21.8643 10.199 22.3843 9.9833 22.9403 9.9833C24.0832 9.9833 25.0129 10.913 25.0129 12.0545C25.0129 13.1974 24.0832 14.1284 22.9403 14.1284ZM27.2485 0.321765C26.1583 0.321765 23.6979 0.483561 21.2993 1.7638C20.792 2.15289 19.4758 3.01323 19.4206 3.05047C19.4014 3.06845 19.3641 3.09926 19.3282 3.12751L19.2383 3.20199C16.9243 5.28608 15.68 8.34865 15.5401 12.3024L15.5247 12.3653L12.353 18.9964C12.2143 19.284 12.2348 19.6166 12.4056 19.8875C12.5751 20.1585 12.8666 20.3203 13.1876 20.3203H16.8383L16.8203 20.4962C16.6816 21.9678 16.8126 24.1173 18.2251 25.9985C18.4909 26.353 18.8055 26.6945 19.1612 27.0143C19.1741 27.0258 19.9997 27.8309 21.0553 28.2663C23.1227 29.1189 25.3133 29.5349 27.7518 29.5349C28.2629 29.5349 28.679 29.1189 28.679 28.6104C28.679 28.0993 28.2629 27.6846 27.7518 27.6846C23.8174 27.6846 21.1131 26.7497 19.7134 24.9045C17.9991 22.6368 18.8248 19.6782 18.8338 19.6487C18.9121 19.3739 18.8556 19.0696 18.6835 18.8384C18.5102 18.6073 18.2328 18.4686 17.9426 18.4686H14.6541L17.2929 12.956C17.3481 12.8404 17.3776 12.7133 17.3815 12.5797C17.4662 9.04976 18.5038 6.36215 20.4633 4.58753C23.3114 2.01163 27.2305 2.15674 27.6709 2.18242C27.9201 2.20682 28.1615 2.12592 28.3515 1.96541C28.539 1.8049 28.6546 1.58146 28.6738 1.33748C28.6931 1.08965 28.6173 0.850812 28.4568 0.66205C28.2963 0.474572 28.0729 0.359003 27.8289 0.339742C27.7955 0.33589 27.5888 0.321765 27.2485 0.321765ZM27.7519 29.8559C25.2697 29.8559 23.0392 29.4322 20.9333 28.5628C19.8161 28.1031 18.9763 27.2826 18.9417 27.2466C18.5757 26.9179 18.247 26.5609 17.9683 26.1911C16.5481 24.3022 16.3683 22.1616 16.4865 20.6412H13.1876C12.7562 20.6412 12.362 20.4229 12.1334 20.0583C11.9035 19.6936 11.8779 19.2454 12.0641 18.8563L15.2204 12.2574C15.3693 8.22917 16.6496 5.10111 19.0264 2.95924L19.1253 2.87834C19.16 2.85009 19.1934 2.82312 19.2267 2.79359C19.2588 2.77304 20.6071 1.89087 21.1259 1.49408C24.3734 -0.242013 27.7146 0.00710181 27.8533 0.0186587C28.1846 0.0469088 28.4851 0.201 28.7008 0.453967C28.9165 0.706934 29.0205 1.03053 28.9949 1.36182C28.9679 1.69184 28.8125 1.99231 28.5583 2.20933C28.3027 2.42505 27.9804 2.52907 27.6517 2.50338C27.2305 2.47642 23.4296 2.33902 20.6791 4.82503C18.7876 6.53801 17.7847 9.14986 17.7025 12.5874C17.6974 12.7672 17.6576 12.9379 17.5805 13.0959L15.1626 18.1475H17.9426C18.333 18.1475 18.7054 18.335 18.9404 18.6458C19.1728 18.9565 19.2486 19.3674 19.1407 19.7424C19.1317 19.7706 18.3587 22.5815 19.9702 24.7118C21.3057 26.471 23.924 27.3635 27.7519 27.3635C28.4401 27.3635 29 27.9233 29 28.6103C29 29.2973 28.4401 29.8559 27.7519 29.8559Z" fill="#DC314F"/>
<path fill-rule="evenodd" clip-rule="evenodd" d="M10.9996 10.1424C12.0565 10.1424 12.9117 11.0002 12.9117 12.0545C12.9117 13.1125 12.0552 13.9678 10.9996 13.9678C9.9454 13.9678 9.08891 13.1125 9.08891 12.0545C9.08634 10.9989 9.94411 10.1424 10.9996 10.1424ZM9.05296 28.4138C10.8597 29.1599 13.0683 29.6954 15.8124 29.6954C16.4121 29.6954 16.8988 29.2087 16.8988 28.6103C16.8988 28.0106 16.4121 27.5227 15.8124 27.5227C11.9281 27.5227 9.26741 26.6084 7.90241 24.8068C6.2485 22.62 7.0395 19.7218 7.04592 19.6961C7.13966 19.3699 7.07545 19.0155 6.87128 18.742C6.66583 18.4672 6.34352 18.308 6.00195 18.308H2.96892L5.4973 13.0239C5.56279 12.8878 5.59746 12.7376 5.6026 12.5835C5.68606 9.09974 6.70563 6.44808 8.63178 4.70685C11.5467 2.0706 15.6519 2.33769 15.7251 2.34283C16.3171 2.39034 16.8461 1.94476 16.8949 1.34765C16.9424 0.751834 16.4956 0.226639 15.8998 0.179128C15.7315 0.165002 12.4558 -0.0712712 9.28282 1.62117C8.75248 2.02566 7.39263 2.91554 7.39263 2.91554C7.32714 2.97075 7.26036 3.02083 7.19488 3.07862C4.84498 5.19352 3.58015 8.29461 3.43889 12.2959L0.268462 18.9256C0.10795 19.2634 0.12978 19.6563 0.328815 19.9722C0.52785 20.2881 0.873271 20.4807 1.24694 20.4807H4.72042C4.58688 21.8906 4.68704 24.1378 6.15733 26.0947C6.43854 26.471 6.75957 26.8138 7.11398 27.1323C7.11398 27.1323 7.95506 27.9605 9.05296 28.4138Z" fill="#DC314F"/>
<path fill-rule="evenodd" clip-rule="evenodd" d="M10.9997 10.3043C10.531 10.3043 10.0892 10.4879 9.75795 10.818C9.42793 11.148 9.24816 11.5884 9.24816 12.0545C9.24816 13.0202 10.034 13.8073 10.9997 13.8073C11.9653 13.8073 12.7512 13.0202 12.7512 12.0545C12.7512 11.0889 11.9653 10.3043 10.9997 10.3043ZM10.9997 14.1284C9.85683 14.1284 8.92714 13.1974 8.92714 12.0545C8.92586 11.5024 9.14159 10.9823 9.53067 10.592C9.9236 10.199 10.4437 9.9833 10.9997 9.9833C12.1425 9.9833 13.0722 10.913 13.0722 12.0545C13.0722 13.1974 12.1425 14.1284 10.9997 14.1284ZM15.3078 0.321765C14.2176 0.321765 11.7573 0.483561 9.35858 1.7638C8.85136 2.15289 7.53516 3.01323 7.47994 3.05047C7.46068 3.06845 7.42344 3.09926 7.38749 3.12751L7.2976 3.20199C4.98366 5.28608 3.73937 8.34865 3.59941 12.3024L3.584 12.3653L0.412282 18.9964C0.273599 19.284 0.294145 19.6166 0.46493 19.8875C0.63443 20.1585 0.92592 20.3203 1.24694 20.3203H4.89763L4.87965 20.4962C4.74097 21.9678 4.87195 24.1173 6.28445 25.9985C6.55026 26.353 6.86486 26.6945 7.22056 27.0143C7.2334 27.0258 8.05907 27.8309 9.1146 28.2663C11.182 29.1189 13.3727 29.5349 15.8112 29.5349C16.3222 29.5349 16.7383 29.1189 16.7383 28.6104C16.7383 28.0993 16.3222 27.6846 15.8112 27.6846C11.8767 27.6846 9.17238 26.7497 7.77272 24.9045C6.05845 22.6368 6.88412 19.6782 6.89311 19.6487C6.97144 19.3739 6.91494 19.0696 6.74287 18.8384C6.56952 18.6073 6.29216 18.4686 6.00195 18.4686H2.71338L5.3522 12.956C5.40741 12.8391 5.43823 12.7082 5.4408 12.5797C5.52555 9.04976 6.5631 6.36215 8.52263 4.58753C11.3708 2.01163 15.2872 2.15674 15.7303 2.18242C15.9781 2.20682 16.2208 2.12592 16.4108 1.96541C16.5983 1.8049 16.7139 1.58146 16.7331 1.33748C16.7524 1.08965 16.6766 0.850812 16.5161 0.66205C16.3556 0.474572 16.1322 0.359003 15.8882 0.339742C15.8548 0.33589 15.6481 0.321765 15.3078 0.321765ZM15.8112 29.8559C13.329 29.8559 11.0985 29.4322 8.99263 28.5628C7.87547 28.1031 7.03567 27.2826 7.001 27.2466C6.63503 26.9179 6.3063 26.5609 6.02765 26.1911C4.60744 24.3022 4.42767 22.1616 4.54581 20.6412H1.24696C0.815508 20.6412 0.421291 20.4229 0.192721 20.0583C-0.0371317 19.6936 -0.0628136 19.2454 0.12338 18.8563L3.27969 12.2574C3.42864 8.22917 4.70889 5.10111 7.08575 2.95924L7.18462 2.87834C7.21929 2.85009 7.25268 2.82312 7.28607 2.79359C7.31817 2.77304 8.66647 1.89087 9.18524 1.49408C12.4314 -0.242013 15.7727 0.00710181 15.9126 0.0186587C16.2439 0.0469088 16.5444 0.201 16.7601 0.453967C16.9759 0.706934 17.0799 1.03053 17.0542 1.36182C17.0272 1.69184 16.8718 1.99231 16.6176 2.20933C16.3621 2.42505 16.041 2.52907 15.711 2.50338C15.2886 2.47642 11.4889 2.33902 8.73838 4.82503C6.84691 6.53801 5.84403 9.14986 5.76185 12.5874C5.75799 12.7633 5.7169 12.9341 5.64114 13.0946L3.2219 18.1475H6.00197C6.39234 18.1475 6.76472 18.335 6.99971 18.6458C7.23214 18.9565 7.3079 19.3674 7.20003 19.7424C7.19104 19.7706 6.41802 22.5815 8.02956 24.7118C9.36502 26.471 11.9833 27.3635 15.8112 27.3635C16.4995 27.3635 17.0593 27.9233 17.0593 28.6103C17.0593 29.2973 16.4995 29.8559 15.8112 29.8559Z" fill="#DC314F"/>
</svg>
