<svg width="30" height="30" viewBox="0 0 30 30" fill="none" xmlns="http://www.w3.org/2000/svg">
<path fill-rule="evenodd" clip-rule="evenodd" d="M7.92893 7.92898C4.02979 11.8281 4.02979 18.172 7.92893 22.0711C11.8281 25.9703 18.1719 25.9703 22.0711 22.0711C25.9702 18.172 25.9702 11.8281 22.0711 7.92898C18.1719 4.02983 11.8281 4.02983 7.92893 7.92898ZM8.81282 8.81286C12.2246 5.40108 17.7754 5.40108 21.1872 8.81286C24.599 12.2246 24.599 17.7755 21.1872 21.1872C17.7754 24.599 12.2246 24.599 8.81282 21.1872C5.40104 17.7755 5.40104 12.2246 8.81282 8.81286Z" fill="#002438"/>
<path d="M17.6516 18.5355L11.4645 12.3483C11.2205 12.1043 11.2205 11.7084 11.4645 11.4644C11.7084 11.2204 12.1044 11.2204 12.3483 11.4644L18.5355 17.6516C18.7795 17.8955 18.7795 18.2915 18.5355 18.5355C18.2916 18.7794 17.8956 18.7794 17.6516 18.5355Z" fill="#002438"/>
<path d="M11.4645 18.5355C11.2205 18.2915 11.2205 17.8955 11.4645 17.6516L17.6516 11.4644C17.8956 11.2204 18.2916 11.2204 18.5355 11.4644C18.7795 11.7084 18.7795 12.1043 18.5355 12.3483L12.3483 18.5355C12.1044 18.7794 11.7084 18.7794 11.4645 18.5355Z" fill="#002438"/>
</svg>
