<svg width="28" height="28" viewBox="0 0 28 28" fill="none" xmlns="http://www.w3.org/2000/svg">
<path fill-rule="evenodd" clip-rule="evenodd" d="M24.6335 20.1353C24.3595 20.327 24.0243 20.3787 23.7091 20.2776L15.5203 16.3119C13.628 15.3946 11.5464 14.8478 9.44482 14.7102V7.68915C11.4735 7.56449 13.4363 7.06702 15.2945 6.20616L23.7091 2.30991C24.0255 2.20876 24.3618 2.26051 24.6358 2.45338C24.9205 2.65449 25.0839 2.96967 25.0839 3.31778V19.2697C25.0839 19.6202 24.9193 19.9354 24.6335 20.1353ZM7.33147 24.0269C7.33147 24.5985 6.86693 25.0724 6.29537 25.0842C6.02252 25.0889 5.75791 24.9819 5.55446 24.7819C5.34159 24.5714 5.21811 24.2809 5.21811 23.9846V15.7675C5.21811 15.2113 4.7865 14.7502 4.2314 14.7138C3.12592 14.6397 2.26034 13.7141 2.26034 12.6051V9.85788C2.26034 8.69359 3.20706 7.74452 4.37253 7.74452H4.37841L7.33147 7.72805V24.0269ZM27.1973 3.31767C27.1973 2.28745 26.694 1.31838 25.8519 0.725654C25.0098 0.132925 23.9279 -0.014081 22.9588 0.332854C22.9294 0.343438 22.8988 0.355198 22.8706 0.368135L14.4054 4.28791C12.5425 5.15113 10.555 5.59567 8.50164 5.60626L4.37018 5.63096C2.04043 5.63331 0.145813 7.52792 0.145813 9.85768V12.6049C0.145813 14.4796 1.38419 16.0931 3.10475 16.6364V23.9844C3.10475 24.8453 3.45757 25.6849 4.07499 26.2894C4.67243 26.8763 5.45097 27.1973 6.27538 27.1973C6.29537 27.1973 6.31654 27.1962 6.33536 27.1962C7.16918 27.1809 7.95125 26.8434 8.53575 26.2483C9.1226 25.652 9.44483 24.8629 9.44483 24.0267V16.8281C11.2289 16.9634 12.9918 17.435 14.5995 18.2135L22.8447 22.2074C22.8777 22.2227 22.9106 22.2368 22.9435 22.2497C23.9161 22.6025 25.0004 22.459 25.846 21.8663C26.6916 21.2736 27.1973 20.3033 27.1973 19.2696V3.31767Z" fill="#DC314F"/>
<path fill-rule="evenodd" clip-rule="evenodd" d="M9.59187 14.5739C11.6605 14.7268 13.7304 15.2819 15.585 16.1792L23.7738 20.1449C24.0279 20.2237 24.316 20.179 24.5489 20.0155H24.55C24.797 19.8426 24.9381 19.571 24.9381 19.2699V3.31796C24.9381 3.01924 24.797 2.74757 24.5512 2.5747C24.316 2.4077 24.0232 2.36536 23.7539 2.45003L15.3557 6.3404C13.5269 7.18716 11.5876 7.68698 9.59187 7.82693V14.5739ZM24.0314 20.4752C23.9091 20.4752 23.7844 20.4564 23.6645 20.4176L15.4556 16.4437C13.594 15.5417 11.5124 14.9925 9.43545 14.8572L9.29785 14.8478V7.55042L9.43545 7.54218C11.4441 7.41752 13.394 6.92358 15.2322 6.0733L23.6468 2.17705C24.0255 2.05474 24.4101 2.11472 24.7206 2.33346C25.0463 2.56279 25.2321 2.92149 25.2321 3.31782V19.2697C25.2321 19.6684 25.0452 20.0283 24.717 20.2565C24.5124 20.3999 24.2737 20.4752 24.0314 20.4752ZM7.1845 7.87637L4.3808 7.89166C3.28943 7.89166 2.40739 8.77369 2.40739 9.85801V12.6053C2.40739 13.6367 3.21298 14.4987 4.24085 14.5657C4.87121 14.6093 5.36515 15.1373 5.36515 15.7677V23.9859C5.36515 24.2423 5.47217 24.4939 5.65799 24.6774C5.82969 24.8444 6.04961 24.9373 6.28012 24.9373H6.29423C6.78465 24.9267 7.1845 24.5186 7.1845 24.0271V7.87637ZM6.2813 25.2314C5.97317 25.2314 5.68034 25.1091 5.45218 24.888C5.20992 24.6481 5.07114 24.3199 5.07114 23.9859V15.7677C5.07114 15.2902 4.69833 14.8927 4.22203 14.8598C3.0401 14.781 2.11338 13.7908 2.11338 12.6053V9.85807C2.11338 8.61263 3.12713 7.5977 4.37374 7.5977L7.47851 7.58006V24.0271C7.47851 24.6775 6.95047 25.2184 6.30011 25.2314H6.2813ZM24.0267 0.294395C23.6833 0.294395 23.3399 0.353197 23.0094 0.471978C22.9871 0.480211 22.96 0.489619 22.9353 0.50138L14.4678 4.42233C12.5861 5.29378 10.5786 5.74186 8.50401 5.75479L4.37138 5.77831C2.12159 5.77949 0.294012 7.60942 0.294012 9.85803V12.6053C0.294012 14.3646 1.46889 15.9664 3.14946 16.4968L3.25178 16.5286V23.9859C3.25178 24.8068 3.5893 25.6077 4.1785 26.1851C4.74654 26.7426 5.49215 27.0495 6.27658 27.0495H6.33655C7.12921 27.0354 7.87483 26.7132 8.43345 26.1451C8.98972 25.5771 9.29785 24.8256 9.29785 24.0271V16.6697L9.45661 16.6815C11.2524 16.8167 13.053 17.3012 14.663 18.081L22.9094 22.076C22.9353 22.0878 22.9624 22.0995 22.9918 22.1101C23.9232 22.4488 24.9546 22.3112 25.7625 21.7467C26.5693 21.181 27.0515 20.2555 27.0515 19.27V3.31802C27.0515 2.33602 26.5717 1.41282 25.7684 0.845962C25.2521 0.482563 24.6429 0.294395 24.0267 0.294395ZM6.27658 27.3427C5.41336 27.3427 4.596 27.0052 3.97269 26.3937C3.32822 25.7633 2.95776 24.8848 2.95776 23.9851V16.743C1.18428 16.135 0 14.4862 0 12.6045V9.85722C0 7.44632 1.96047 5.48467 4.3702 5.48349L8.50166 5.45997C10.535 5.44704 12.5002 5.00837 14.3443 4.15574L22.8095 0.235962C22.8412 0.220674 22.8742 0.207737 22.9071 0.194801C23.9255 -0.170951 25.0569 -0.0145362 25.9378 0.604066C26.8186 1.2262 27.3455 2.23995 27.3455 3.31721V19.2691C27.3455 20.3499 26.8163 21.366 25.9307 21.987C25.0451 22.6079 23.9079 22.7561 22.8953 22.3869C22.8589 22.3751 22.8201 22.3575 22.7836 22.3398L14.5348 18.3448C13.0048 17.6039 11.2995 17.1358 9.59186 16.9876V24.0263C9.59186 24.9012 9.25433 25.7268 8.64161 26.3513C8.03006 26.9734 7.21271 27.3263 6.33891 27.3427H6.27658Z" fill="#DC314F"/>
</svg>
