<svg width="29" height="32" version="1.1" viewBox="0 0 29 32" xmlns="http://www.w3.org/2000/svg">
 <path d="m2.7525 28.855h22.865v-15.354l-11.433-10.256-11.432 10.256v15.354zm23.343 0.4998h-23.822v-16.04l11.91-10.684 0.1116 0.0994 11.8 10.584v16.04zm-11.912-29.014c-0.2298 0-0.4596 0.081699-0.6424 0.2451l-12.879 11.554c-0.20697 0.1838-0.32658 0.4534-0.32658 0.7339v17.462c0 0.5405 0.4341 0.9817 0.969 0.9817h25.76c0.5322 0 0.9676-0.4412 0.969-0.9817v-17.462c-0.0014-0.2805-0.121-0.5501-0.3293-0.7339l-12.879-11.554c-0.1814-0.1634-0.4112-0.2451-0.6411-0.2451zm12.881 31.317h-25.76c-0.71903 0-1.305-0.5937-1.305-1.3221v-17.462c0-0.3799 0.15993-0.7394 0.43948-0.9899l12.879-11.552c0.4945-0.44254 1.2378-0.43982 1.7296 0l12.879 11.552c0.2782 0.2505 0.4408 0.61 0.4422 0.9885v17.463c-0.0014 0.7284-0.5873 1.3221-1.305 1.3221z" clip-rule="evenodd" fill="#DC314F" fill-rule="evenodd" style="fill:#fff"/>
 <g clip-rule="evenodd" fill="#DC314F" fill-rule="evenodd">
  <path d="m25.928 29.184h-23.487v-15.794l11.744-10.532 11.744 10.532v15.794zm1.8884-17.173-12.879-11.552c-0.4287-0.38535-1.0765-0.38671-1.5066 0l-12.879 11.552c-0.24326 0.2178-0.38303 0.5324-0.38303 0.8619v17.463c0 0.6345 0.50936 1.1506 1.137 1.1506h25.76c0.6263 0 1.1356-0.5161 1.1356-1.1506v-17.463c0-0.3295-0.1397-0.6441-0.3843-0.8619z" style="fill:#fff"/>
  <path d="m18.01 19.014h-7.6512c-0.62766 0-1.137 0.5147-1.137 1.1506v10.172h2.2726v-9.0196h5.3786v9.0196h2.274v-10.172c0-0.6359-0.508-1.1506-1.137-1.1506z" style="fill:#fff"/>
 </g>
 <path d="m17.041 30.165h1.9367v-9.9999c0-0.5406-0.4341-0.9804-0.9677-0.9804h-7.6526c-0.53352 0-0.96762 0.4398-0.96762 0.9804v9.9999h1.9366v-9.0182h5.7146v9.0182zm2.2727 0.3405h-2.7417v-8.8753h-4.7859v8.8753h-2.7323v-10.34c0-0.7285 0.58462-1.3209 1.3037-1.3209h7.6525c0.7191 0 1.3037 0.5924 1.3037 1.3209v10.34z" clip-rule="evenodd" fill="#DC314F" fill-rule="evenodd" style="fill:#fff"/>
</svg>
