<svg width="29" height="32" viewBox="0 0 29 32" fill="none" xmlns="http://www.w3.org/2000/svg">
<path fill-rule="evenodd" clip-rule="evenodd" d="M25.9279 29.1839H2.44069V13.3901L14.1843 2.85771L25.9279 13.3901V29.1839ZM27.8163 12.0108L14.937 0.458467C14.5083 0.0731191 13.8605 0.0717574 13.4304 0.458467L0.551123 12.0108C0.307864 12.2286 0.168091 12.5432 0.168091 12.8727V30.3359C0.168091 30.9704 0.677456 31.4865 1.30509 31.4865H27.065C27.6913 31.4865 28.2006 30.9704 28.2006 30.3359V12.8727C28.2006 12.5432 28.0609 12.2286 27.8163 12.0108Z" fill="#DC314F"/>
<path fill-rule="evenodd" clip-rule="evenodd" d="M2.75248 28.8548H25.6175V13.5008L14.1843 3.24483L2.75248 13.5008V28.8548ZM26.0958 29.3546H2.27396V13.3143L14.1842 2.63071L14.2958 2.73011L26.0958 13.3143V29.3546ZM14.1842 0.34041C13.9544 0.34041 13.7246 0.422109 13.5418 0.585508L0.662541 12.1392C0.45557 12.323 0.335956 12.5926 0.335956 12.8731V30.335C0.335956 30.8755 0.770059 31.3167 1.30496 31.3167H27.0649C27.5971 31.3167 28.0325 30.8755 28.0339 30.335V12.8731C28.0325 12.5926 27.9129 12.323 27.7046 12.1392L14.8253 0.585508C14.6439 0.422109 14.4141 0.34041 14.1842 0.34041ZM27.0649 31.6571H1.305C0.585972 31.6571 0 31.0634 0 30.335V12.8731C0 12.4932 0.159933 12.1337 0.439479 11.8832L13.3188 0.330883C13.8133 -0.111655 14.5566 -0.108932 15.0484 0.330883L27.9277 11.8832C28.2059 12.1337 28.3685 12.4932 28.3699 12.8717V30.335C28.3685 31.0634 27.7826 31.6571 27.0649 31.6571Z" fill="#DC314F"/>
<path fill-rule="evenodd" clip-rule="evenodd" d="M18.0099 19.0135H10.3587C9.73104 19.0135 9.22168 19.5282 9.22168 20.1641V30.3356H11.4943V21.316H16.8729V30.3356H19.1469V20.1641C19.1469 19.5282 18.6389 19.0135 18.0099 19.0135Z" fill="#DC314F"/>
<path fill-rule="evenodd" clip-rule="evenodd" d="M17.0412 30.1647H18.9779V20.1648C18.9779 19.6242 18.5438 19.1844 18.0102 19.1844H10.3576C9.82408 19.1844 9.38998 19.6242 9.38998 20.1648V30.1647H11.3266V21.1465H17.0412V30.1647ZM19.3139 30.5052H16.5722V21.6299H11.7863V30.5052H9.05402V20.1648C9.05402 19.4363 9.63864 18.8439 10.3577 18.8439H18.0102C18.7293 18.8439 19.3139 19.4363 19.3139 20.1648V30.5052Z" fill="#DC314F"/>
</svg>
