<svg width="31" height="22" viewBox="0 0 31 22" fill="none" xmlns="http://www.w3.org/2000/svg">
<path fill-rule="evenodd" clip-rule="evenodd" d="M27.0761 0H26.6981H4.10209H3.72409C1.59212 0.238803 -0.0137317 2.01757 8.85282e-05 4.125V17.875C8.85282e-05 20.1532 1.88049 22 4.20009 22H26.6001C28.9197 22 30.8001 20.1532 30.8001 17.875V4.125C30.8139 2.01757 29.2081 0.238803 27.0761 0ZM26.4321 2.75L16.8001 12.21C16.2541 12.7431 15.3722 12.7431 14.8261 12.21L5.19412 2.75H26.4321ZM26.6001 19.2499C27.3733 19.2499 28.0001 18.6342 28.0001 17.8749V4.68861L18.3681 14.1486C16.7283 15.7571 14.0719 15.7571 12.4321 14.1486L2.80012 4.68861V17.8749C2.80012 18.6342 3.42692 19.2499 4.20012 19.2499H26.6001Z" fill="#DC314F"/>
</svg>
