<svg width="28" height="35" viewBox="0 0 28 35" fill="none" xmlns="http://www.w3.org/2000/svg">
<path fill-rule="evenodd" clip-rule="evenodd" d="M24.36 2.12591C24.8263 1.71127 25.4979 1.61048 26.068 1.86969C26.6413 2.12143 27.0078 2.686 26.9999 3.30545V32.3211C27.0026 32.708 26.8601 33.0821 26.5997 33.3712C26.0185 34.0166 25.0174 34.0745 24.3638 33.5006L22.1482 31.5657L19.1359 34.2252C18.5307 34.7603 17.6147 34.7603 17.0095 34.2252L14 31.5681L10.9909 34.2255C10.3859 34.7607 9.46992 34.7607 8.86491 34.2255L5.85339 31.5659L3.6399 33.501C3.34712 33.7579 2.96837 33.8988 2.5767 33.8965C1.70076 33.8914 0.994854 33.1862 1.00004 32.3214V3.30545C0.997326 2.91883 1.13985 2.54489 1.4 2.25592C1.98109 1.61048 2.98217 1.55229 3.63591 2.12599L5.85148 4.06097L8.86379 1.40134C9.46897 0.866219 10.385 0.866219 10.9902 1.40134L14 4.05845L17.009 1.40134C17.614 0.866219 18.53 0.866219 19.135 1.40134L22.1465 4.06097L24.36 2.12591ZM21.0836 30.3917C21.6858 29.8593 22.5966 29.8569 23.2017 30.3861L25.4128 32.3207L25.4048 23.2514V3.30546L23.1973 5.24052C22.5944 5.76966 21.6852 5.76721 21.0853 5.23485L18.0726 2.5753L15.0632 5.23241C14.4581 5.76753 13.542 5.76753 12.9369 5.23241L9.92781 2.5753L6.91638 5.23485C6.31415 5.76729 5.40336 5.76966 4.79827 5.24044L2.58717 3.30586L2.59514 28.1233V32.3206L4.80265 30.3861C5.40552 29.8569 6.31471 29.8594 6.91462 30.3917L9.92733 33.0513L12.9368 30.3942C13.5419 29.859 14.4579 29.859 15.063 30.3942L18.0721 33.0513L21.0836 30.3917Z" fill="#DC314F"/>
<path d="M26.068 1.86969L25.9645 2.09729L25.9675 2.09859L26.068 1.86969ZM24.36 2.12591L24.5246 2.31414L24.5261 2.31274L24.36 2.12591ZM26.9999 3.30545L26.7499 3.30226V3.30545H26.9999ZM26.9999 32.3211H26.7499L26.7499 32.3229L26.9999 32.3211ZM26.5997 33.3712L26.4139 33.2039L26.4139 33.2039L26.5997 33.3712ZM24.3638 33.5006L24.5287 33.3128L24.5282 33.3123L24.3638 33.5006ZM22.1482 31.5657L22.3126 31.3774L22.1473 31.233L21.9827 31.3783L22.1482 31.5657ZM19.1359 34.2252L18.9704 34.0378L18.9703 34.0379L19.1359 34.2252ZM17.0095 34.2252L17.1751 34.0379L17.1749 34.0378L17.0095 34.2252ZM14 31.5681L14.1654 31.3807L13.9999 31.2346L13.8345 31.3807L14 31.5681ZM10.9909 34.2255L10.8254 34.0381L10.8253 34.0383L10.9909 34.2255ZM8.86491 34.2255L9.03054 34.0383L9.0304 34.0381L8.86491 34.2255ZM5.85339 31.5659L6.01888 31.3785L5.85423 31.2331L5.68885 31.3777L5.85339 31.5659ZM3.6399 33.501L3.47536 33.3127L3.475 33.313L3.6399 33.501ZM2.5767 33.8965L2.57524 34.1465H2.57524L2.5767 33.8965ZM1.00004 32.3214L1.25004 32.3229V32.3214H1.00004ZM1.00004 3.30545H1.25004L1.25003 3.3037L1.00004 3.30545ZM1.4 2.25592L1.21421 2.08864L1.21421 2.08865L1.4 2.25592ZM3.63591 2.12599L3.47101 2.3139L3.47146 2.31429L3.63591 2.12599ZM5.85148 4.06097L5.68703 4.24927L5.85238 4.39367L6.01694 4.24837L5.85148 4.06097ZM8.86379 1.40134L9.02926 1.58875L9.0294 1.58863L8.86379 1.40134ZM10.9902 1.40134L10.8246 1.58863L10.8247 1.58876L10.9902 1.40134ZM14 4.05845L13.8345 4.24586L14 4.39195L14.1654 4.24584L14 4.05845ZM17.009 1.40134L17.1745 1.58874L17.1746 1.5886L17.009 1.40134ZM19.135 1.40134L18.9694 1.5886L18.9695 1.58873L19.135 1.40134ZM22.1465 4.06097L21.981 4.24835L22.1457 4.39376L22.3111 4.24919L22.1465 4.06097ZM23.2017 30.3861L23.3663 30.198L23.3663 30.198L23.2017 30.3861ZM21.0836 30.3917L21.2491 30.5791L21.2492 30.579L21.0836 30.3917ZM25.4128 32.3207L25.2482 32.5089L25.6633 32.8721L25.6628 32.3205L25.4128 32.3207ZM25.4048 23.2514H25.1548V23.2517L25.4048 23.2514ZM25.4048 3.30546H25.6548V2.75387L25.24 3.11747L25.4048 3.30546ZM23.1973 5.24052L23.0325 5.05252L23.0324 5.05263L23.1973 5.24052ZM21.0853 5.23485L21.2513 5.04786L21.2508 5.04743L21.0853 5.23485ZM18.0726 2.5753L18.2381 2.38788L18.0726 2.24181L17.9072 2.38789L18.0726 2.5753ZM15.0632 5.23241L14.8977 5.045L14.8976 5.04513L15.0632 5.23241ZM12.9369 5.23241L13.1026 5.04513L13.1024 5.04501L12.9369 5.23241ZM9.92781 2.5753L10.0933 2.3879L9.9278 2.24177L9.76232 2.38791L9.92781 2.5753ZM6.91638 5.23485L6.75089 5.04746L6.75078 5.04755L6.91638 5.23485ZM4.79827 5.24044L4.63365 5.42859L4.63368 5.42862L4.79827 5.24044ZM2.58717 3.30586L2.75179 3.11771L2.33699 2.75478L2.33717 3.30594L2.58717 3.30586ZM2.59514 28.1233H2.84514V28.1232L2.59514 28.1233ZM2.59514 32.3206H2.34514V32.8721L2.75991 32.5086L2.59514 32.3206ZM4.80265 30.3861L4.96742 30.5741L4.96757 30.574L4.80265 30.3861ZM6.91462 30.3917L6.74869 30.5787L6.74917 30.5792L6.91462 30.3917ZM9.92733 33.0513L9.76188 33.2387L9.92735 33.3848L10.0928 33.2387L9.92733 33.0513ZM12.9368 30.3942L13.1022 30.5816L13.1024 30.5814L12.9368 30.3942ZM15.063 30.3942L14.8974 30.5814L14.8975 30.5816L15.063 30.3942ZM18.0721 33.0513L17.9067 33.2387L18.0722 33.3848L18.2376 33.2387L18.0721 33.0513ZM26.1715 1.64211C25.5118 1.34215 24.7344 1.45844 24.1939 1.93909L24.5261 2.31274C24.9182 1.96409 25.4841 1.8788 25.9645 2.09727L26.1715 1.64211ZM27.2499 3.30864C27.259 2.58741 26.8324 1.9323 26.1685 1.64079L25.9675 2.09859C26.4502 2.31055 26.7565 2.78458 26.7499 3.30226L27.2499 3.30864ZM27.2499 32.3211V3.30545H26.7499V32.3211H27.2499ZM26.7854 33.5385C27.0874 33.2033 27.253 32.7689 27.2499 32.3194L26.7499 32.3229C26.7522 32.647 26.6328 32.9609 26.4139 33.2039L26.7854 33.5385ZM24.1988 33.6885C24.955 34.3524 26.1125 34.2858 26.7854 33.5385L26.4139 33.2039C25.9245 33.7473 25.0798 33.7966 24.5287 33.3128L24.1988 33.6885ZM21.9837 31.754L24.1993 33.6889L24.5282 33.3123L22.3126 31.3774L21.9837 31.754ZM19.3013 34.4126L22.3137 31.7531L21.9827 31.3783L18.9704 34.0378L19.3013 34.4126ZM16.8439 34.4125C17.5436 35.0312 18.6017 35.0312 19.3015 34.4125L18.9703 34.0379C18.4597 34.4894 17.6857 34.4894 17.1751 34.0379L16.8439 34.4125ZM13.8345 31.7555L16.844 34.4126L17.1749 34.0378L14.1654 31.3807L13.8345 31.7555ZM11.1564 34.4129L14.1654 31.7555L13.8345 31.3807L10.8254 34.0381L11.1564 34.4129ZM8.69928 34.4128C9.39887 35.0316 10.457 35.0316 11.1565 34.4128L10.8253 34.0383C10.3148 34.4897 9.54098 34.4897 9.03054 34.0383L8.69928 34.4128ZM5.6879 31.7533L8.69942 34.4129L9.0304 34.0381L6.01888 31.3785L5.6879 31.7533ZM3.80444 33.6892L6.01794 31.7541L5.68885 31.3777L3.47536 33.3127L3.80444 33.6892ZM2.57524 34.1465C3.02773 34.1492 3.46576 33.9864 3.8048 33.6889L3.475 33.313C3.22848 33.5294 2.909 33.6485 2.57815 33.6466L2.57524 34.1465ZM0.750042 32.3199C0.744013 33.3258 1.56424 34.1406 2.57524 34.1465L2.57816 33.6466C1.83727 33.6422 1.2457 33.0466 1.25003 32.3229L0.750042 32.3199ZM0.750038 3.30545V32.3214H1.25004V3.30545H0.750038ZM1.21421 2.08865C0.912584 2.42368 0.746892 2.85781 0.750044 3.3072L1.25003 3.3037C1.24776 2.97986 1.36711 2.6661 1.5858 2.42318L1.21421 2.08865ZM3.80081 1.93809C3.04447 1.27435 1.88708 1.34126 1.21421 2.08864L1.5858 2.42319C2.07511 1.87969 2.91986 1.83023 3.47101 2.3139L3.80081 1.93809ZM6.01593 3.87267L3.80036 1.9377L3.47146 2.31429L5.68703 4.24927L6.01593 3.87267ZM8.69833 1.21393L5.68601 3.87356L6.01694 4.24837L9.02926 1.58875L8.69833 1.21393ZM11.1558 1.21406C10.4561 0.595314 9.39793 0.595314 8.69819 1.21406L9.0294 1.58863C9.54 1.13712 10.314 1.13712 10.8246 1.58863L11.1558 1.21406ZM14.1654 3.87103L11.1557 1.21393L10.8247 1.58876L13.8345 4.24586L14.1654 3.87103ZM16.8435 1.21395L13.8345 3.87105L14.1654 4.24584L17.1745 1.58874L16.8435 1.21395ZM19.3006 1.21408C18.601 0.595307 17.543 0.595307 16.8434 1.21408L17.1746 1.5886C17.6851 1.13713 18.4589 1.13713 18.9694 1.5886L19.3006 1.21408ZM22.312 3.87358L19.3005 1.21396L18.9695 1.58873L21.981 4.24835L22.312 3.87358ZM24.1955 1.9377L21.982 3.87275L22.3111 4.24919L24.5246 2.31413L24.1955 1.9377ZM23.3663 30.198C22.6666 29.586 21.6144 29.5887 20.918 30.2044L21.2492 30.579C21.7572 30.1299 22.5266 30.1278 23.0371 30.5743L23.3663 30.198ZM25.5774 32.1326L23.3663 30.198L23.0371 30.5743L25.2482 32.5089L25.5774 32.1326ZM25.1548 23.2517L25.1628 32.3209L25.6628 32.3205L25.6548 23.2512L25.1548 23.2517ZM25.1548 3.30546V23.2514H25.6548V3.30546H25.1548ZM23.3621 5.42851L25.5696 3.49346L25.24 3.11747L23.0325 5.05252L23.3621 5.42851ZM20.9194 5.42184C21.6136 6.03788 22.6646 6.04069 23.3622 5.42841L23.0324 5.05263C22.5243 5.49862 21.7569 5.49654 21.2513 5.04786L20.9194 5.42184ZM17.9072 2.76272L20.9199 5.42227L21.2508 5.04743L18.2381 2.38788L17.9072 2.76272ZM15.2286 5.41981L18.2381 2.76271L17.9072 2.38789L14.8977 5.045L15.2286 5.41981ZM12.7713 5.41968C13.471 6.03844 14.5291 6.03844 15.2288 5.41968L14.8976 5.04513C14.387 5.49662 13.6131 5.49662 13.1026 5.04513L12.7713 5.41968ZM9.76234 2.7627L12.7715 5.4198L13.1024 5.04501L10.0933 2.3879L9.76234 2.7627ZM7.08187 5.42223L10.0933 2.76269L9.76232 2.38791L6.75089 5.04746L7.08187 5.42223ZM4.63368 5.42862C5.33339 6.04058 6.38555 6.03787 7.08197 5.42214L6.75078 5.04755C6.24276 5.49671 5.47334 5.49873 4.96285 5.05226L4.63368 5.42862ZM2.42255 3.49401L4.63365 5.42859L4.96289 5.05229L2.75179 3.11771L2.42255 3.49401ZM2.84514 28.1232L2.83717 3.30578L2.33717 3.30594L2.34514 28.1234L2.84514 28.1232ZM2.84514 32.3206V28.1233H2.34514V32.3206H2.84514ZM4.63789 30.198L2.43037 32.1325L2.75991 32.5086L4.96742 30.5741L4.63789 30.198ZM7.08056 30.2047C6.38635 29.5887 5.33533 29.5859 4.63774 30.1982L4.96757 30.574C5.4757 30.128 6.24307 30.13 6.74869 30.5787L7.08056 30.2047ZM10.0928 32.8639L7.08007 30.2043L6.74917 30.5792L9.76188 33.2387L10.0928 32.8639ZM12.7713 30.2068L9.76187 32.8639L10.0928 33.2387L13.1022 30.5816L12.7713 30.2068ZM15.2286 30.2069C14.529 29.5881 13.4708 29.5881 12.7712 30.2069L13.1024 30.5814C13.6129 30.13 14.3869 30.13 14.8974 30.5814L15.2286 30.2069ZM18.2376 32.8639L15.2285 30.2068L14.8975 30.5816L17.9067 33.2387L18.2376 32.8639ZM20.9181 30.2043L17.9067 32.8639L18.2376 33.2387L21.2491 30.5791L20.9181 30.2043Z" fill="#DC314F"/>
<path d="M20.7257 18.6801H6.92782C6.52586 18.6801 6.20003 19.1457 6.20003 19.7201C6.20003 20.2945 6.52586 20.7601 6.92782 20.7601H20.7257C21.1276 20.7601 21.4535 20.2945 21.4535 19.7201C21.4535 19.1457 21.1276 18.6801 20.7257 18.6801Z" fill="#DC314F" stroke="#DC314F" stroke-width="0.5"/>
<path d="M14.2 12.0934H7.56012C7.19187 12.0934 6.89337 12.5591 6.89337 13.1335C6.89337 13.7078 7.19187 14.1735 7.56012 14.1735H14.2C14.5682 14.1735 14.8668 13.7078 14.8668 13.1335C14.8668 12.5591 14.5682 12.0934 14.2 12.0934Z" fill="#DC314F" stroke="#DC314F" stroke-width="0.5"/>
</svg>
