<svg width="19" height="20" viewBox="0 0 19 20" fill="none" xmlns="http://www.w3.org/2000/svg">
<path fill-rule="evenodd" clip-rule="evenodd" d="M13.1366 9.79864C14.9349 8.41364 15.6417 6.05958 14.8966 3.93647C14.1515 1.81336 12.1186 0.388672 9.83431 0.388672C7.54998 0.388672 5.51713 1.81336 4.77205 3.93647C4.02696 6.05958 4.7337 8.41364 6.53198 9.79864C3.14001 11.1268 0.912856 14.3523 0.909088 17.942V18.8196C0.909088 19.3042 1.30868 19.6971 1.80161 19.6971C2.29454 19.6971 2.69413 19.3042 2.69413 18.8196V17.942C2.69413 14.0649 5.8909 10.9219 9.83431 10.9219C13.7777 10.9219 16.9745 14.0649 16.9745 17.942V18.8196C16.9745 19.3042 17.3741 19.6971 17.867 19.6971C18.3599 19.6971 18.7595 19.3042 18.7595 18.8196V17.942C18.7558 14.3523 16.5286 11.1268 13.1366 9.79864ZM6.26422 5.6566C6.26422 3.71803 7.86261 2.14651 9.83431 2.14651C11.806 2.14651 13.4044 3.71803 13.4044 5.6566C13.4044 7.59517 11.806 9.16669 9.83431 9.16669C8.88747 9.16669 7.9794 8.79688 7.30988 8.13861C6.64036 7.48034 6.26422 6.58753 6.26422 5.6566Z" fill="white"/>
</svg>
