<svg width="39" height="28" viewBox="0 0 39 28" fill="none" xmlns="http://www.w3.org/2000/svg">
<path d="M3.64612 17.6341C5.65981 17.6341 7.29223 16.007 7.29223 14C7.29223 11.993 5.65981 10.366 3.64612 10.366C1.63242 10.366 0 11.993 0 14C0 16.007 1.63242 17.6341 3.64612 17.6341Z" fill="#F1034A"/>
<path d="M14.0465 7.26809C16.0602 7.26809 17.6926 5.64107 17.6926 3.63404C17.6926 1.62702 16.0602 0 14.0465 0C12.0328 0 10.4004 1.62702 10.4004 3.63404C10.4004 5.64107 12.0328 7.26809 14.0465 7.26809Z" fill="#F1034A"/>
<path d="M14.0465 7.26808C12.2533 7.26808 10.5797 7.98297 9.32448 9.23403C8.06926 10.4851 7.35199 12.1532 7.35199 13.9404L3.70587 10.3064C5.49904 10.3064 7.17267 9.59148 8.42789 8.34042C9.68311 7.08935 10.4004 5.36169 10.4004 3.63403L14.0465 7.26808Z" fill="#F1034A"/>
<path d="M14.0465 27.9404C16.0602 27.9404 17.6926 26.3134 17.6926 24.3064C17.6926 22.2994 16.0602 20.6724 14.0465 20.6724C12.0328 20.6724 10.4004 22.2994 10.4004 24.3064C10.4004 26.3134 12.0328 27.9404 14.0465 27.9404Z" fill="#DC314F"/>
<path d="M24.3871 17.6341C26.4008 17.6341 28.0333 16.007 28.0333 14C28.0333 11.993 26.4008 10.366 24.3871 10.366C22.3734 10.366 20.741 11.993 20.741 14C20.741 16.007 22.3734 17.6341 24.3871 17.6341Z" fill="#DC314F"/>
<path d="M24.3871 17.634C22.594 17.634 20.9203 18.3489 19.6651 19.6C18.4099 20.8511 17.6926 22.5787 17.6926 24.3064L14.0465 20.6723C15.8397 20.6723 17.5133 19.9574 18.7685 18.7064C20.0237 17.4553 20.741 15.7277 20.741 14L24.3871 17.634Z" fill="#DC314F"/>
<path d="M24.3871 7.26809C26.4008 7.26809 28.0333 5.64107 28.0333 3.63404C28.0333 1.62702 26.4008 0 24.3871 0C22.3734 0 20.741 1.62702 20.741 3.63404C20.741 5.64107 22.3734 7.26809 24.3871 7.26809Z" fill="#FF7C59"/>
<path d="M24.3871 7.26808C22.594 7.26808 20.9203 7.98297 19.6651 9.23403C18.4099 10.4851 17.6926 12.1532 17.6926 13.9404L14.0465 10.3064C15.8397 10.3064 17.5133 9.59148 18.7685 8.34042C20.0237 7.08935 20.741 5.36169 20.741 3.63403L24.3871 7.26808Z" fill="#FF7C59"/>
<path d="M14.0465 17.6341C16.0602 17.6341 17.6926 16.007 17.6926 14C17.6926 11.993 16.0602 10.366 14.0465 10.366C12.0328 10.366 10.4004 11.993 10.4004 14C10.4004 16.007 12.0328 17.6341 14.0465 17.6341Z" fill="#FFAF6C"/>
<path d="M34.7278 17.6341C36.7414 17.6341 38.3739 16.007 38.3739 14C38.3739 11.993 36.7414 10.366 34.7278 10.366C32.7141 10.366 31.0816 11.993 31.0816 14C31.0816 16.007 32.7141 17.6341 34.7278 17.6341Z" fill="#FF7C59"/>
<path d="M34.7278 17.634C32.9346 17.634 31.261 18.3489 30.0058 19.6C28.7505 20.8511 28.0333 22.5787 28.0333 24.3064L24.3871 20.6723C26.1803 20.6723 27.8539 19.9574 29.1092 18.7064C30.3644 17.4553 31.0817 15.7277 31.0817 14L34.7278 17.634Z" fill="#FF7C59"/>
<path d="M24.3871 27.9404C26.4008 27.9404 28.0333 26.3134 28.0333 24.3064C28.0333 22.2994 26.4008 20.6724 24.3871 20.6724C22.3734 20.6724 20.741 22.2994 20.741 24.3064C20.741 26.3134 22.3734 27.9404 24.3871 27.9404Z" fill="#FFAF6C"/>
</svg>
