<svg width="73" height="55" viewBox="0 0 73 55" fill="none" xmlns="http://www.w3.org/2000/svg">
<g filter="url(#filter0_d)">
<path d="M10.1 29.6C13.4689 29.6 16.2 26.869 16.2 23.5C16.2 20.1311 13.4689 17.4 10.1 17.4C6.73106 17.4 4 20.1311 4 23.5C4 26.869 6.73106 29.6 10.1 29.6Z" fill="#0082A5"/>
<path d="M27.4999 46.9C30.8688 46.9 33.5999 44.1689 33.5999 40.8C33.5999 37.4311 30.8688 34.7 27.4999 34.7C24.131 34.7 21.3999 37.4311 21.3999 40.8C21.3999 44.1689 24.131 46.9 27.4999 46.9Z" fill="#0082A5"/>
<path d="M21.3001 40.8C21.3001 37.8 20.1001 35 18.0001 32.9C15.9001 30.8 13.0001 29.6 10.1001 29.6L16.2001 23.5C16.2001 26.5 17.4001 29.3 19.5001 31.4C21.6001 33.5 24.4001 34.7 27.4001 34.7L21.3001 40.8Z" fill="#FF453B"/>
<path d="M27.4999 12.2C30.8688 12.2 33.5999 9.46894 33.5999 6.1C33.5999 2.73106 30.8688 0 27.4999 0C24.131 0 21.3999 2.73106 21.3999 6.1C21.3999 9.46894 24.131 12.2 27.4999 12.2Z" fill="#DC314F"/>
<path d="M27.5 12.3C24.5 12.3 21.7 13.5 19.6 15.6C17.5 17.7 16.3 20.6 16.3 23.5L10.2 17.4C13.2 17.4 16 16.2 18.1 14.1C20.2 12 21.4 9.10001 21.4 6.20001L27.5 12.3Z" fill="#DC314F"/>
<path d="M27.4999 46.9C30.8688 46.9 33.5999 44.1689 33.5999 40.8C33.5999 37.4311 30.8688 34.7 27.4999 34.7C24.131 34.7 21.3999 37.4311 21.3999 40.8C21.3999 44.1689 24.131 46.9 27.4999 46.9Z" fill="#DC314F"/>
<path d="M44.8 29.6C48.1689 29.6 50.9 26.869 50.9 23.5C50.9 20.1311 48.1689 17.4 44.8 17.4C41.431 17.4 38.7 20.1311 38.7 23.5C38.7 26.869 41.431 29.6 44.8 29.6Z" fill="#DC314F"/>
<path d="M44.8 29.6C41.8 29.6 39 30.8 36.9 32.9C34.8 35 33.6 37.9 33.6 40.8L27.5 34.7C30.5 34.7 33.3 33.5 35.4 31.4C37.5 29.3 38.7 26.4 38.7 23.5L44.8 29.6Z" fill="#DC314F"/>
<path d="M44.8 12.3C41.8 12.3 39 13.5 36.9 15.6C34.8 17.7 33.6 20.6 33.6 23.5L27.5 17.4C30.5 17.4 33.3 16.2 35.4 14.1C37.5 12 38.7 9.10001 38.7 6.20001L44.8 12.3Z" fill="#FF7C59"/>
<path d="M62.1 29.6C59.1 29.6 56.3 30.8 54.2 32.9C52.1 35 50.9 37.9 50.9 40.8L44.8 34.7C47.8 34.7 50.6 33.5 52.7 31.4C54.8 29.3 56 26.5 56 23.5L62.1 29.6Z" fill="#FF7C59"/>
<path d="M44.8 46.9C48.1689 46.9 50.9 44.1689 50.9 40.8C50.9 37.4311 48.1689 34.7 44.8 34.7C41.431 34.7 38.7 37.4311 38.7 40.8C38.7 44.1689 41.431 46.9 44.8 46.9Z" fill="url(#paint0_linear)"/>
<path d="M10.1 29.6C13.4689 29.6 16.2 26.869 16.2 23.5C16.2 20.1311 13.4689 17.4 10.1 17.4C6.73106 17.4 4 20.1311 4 23.5C4 26.869 6.73106 29.6 10.1 29.6Z" fill="url(#paint1_linear)"/>
<path d="M62.1 29.6C65.4689 29.6 68.2 26.869 68.2 23.5C68.2 20.1311 65.4689 17.4 62.1 17.4C58.7311 17.4 56 20.1311 56 23.5C56 26.869 58.7311 29.6 62.1 29.6Z" fill="url(#paint2_linear)"/>
<path d="M44.8 12.2C48.1689 12.2 50.9 9.46894 50.9 6.1C50.9 2.73106 48.1689 0 44.8 0C41.431 0 38.7 2.73106 38.7 6.1C38.7 9.46894 41.431 12.2 44.8 12.2Z" fill="url(#paint3_linear)"/>
<path d="M27.4999 29.6C30.8688 29.6 33.5999 26.869 33.5999 23.5C33.5999 20.1311 30.8688 17.4 27.4999 17.4C24.131 17.4 21.3999 20.1311 21.3999 23.5C21.3999 26.869 24.131 29.6 27.4999 29.6Z" fill="url(#paint4_linear)"/>
<path d="M10.1 29.6C13.4689 29.6 16.2 26.869 16.2 23.5C16.2 20.1311 13.4689 17.4 10.1 17.4C6.73106 17.4 4 20.1311 4 23.5C4 26.869 6.73106 29.6 10.1 29.6Z" fill="#0082A5"/>
<path d="M27.4999 46.9C30.8688 46.9 33.5999 44.1689 33.5999 40.8C33.5999 37.4311 30.8688 34.7 27.4999 34.7C24.131 34.7 21.3999 37.4311 21.3999 40.8C21.3999 44.1689 24.131 46.9 27.4999 46.9Z" fill="#0082A5"/>
<path d="M21.3001 40.8C21.3001 37.8 20.1001 35 18.0001 32.9C15.9001 30.8 13.0001 29.6 10.1001 29.6L16.2001 23.5C16.2001 26.5 17.4001 29.3 19.5001 31.4C21.6001 33.5 24.4001 34.7 27.4001 34.7L21.3001 40.8Z" fill="#FF453B"/>
<path d="M21.3001 40.8C21.3001 37.8 20.1001 35 18.0001 32.9C15.9001 30.8 13.0001 29.6 10.1001 29.6L16.2001 23.5C16.2001 26.5 17.4001 29.3 19.5001 31.4C21.6001 33.5 24.4001 34.7 27.4001 34.7L21.3001 40.8Z" fill="#FF453B"/>
<path d="M27.4999 12.2C30.8688 12.2 33.5999 9.46894 33.5999 6.1C33.5999 2.73106 30.8688 0 27.4999 0C24.131 0 21.3999 2.73106 21.3999 6.1C21.3999 9.46894 24.131 12.2 27.4999 12.2Z" fill="#DC314F"/>
<path d="M27.4999 12.2C30.8688 12.2 33.5999 9.46894 33.5999 6.1C33.5999 2.73106 30.8688 0 27.4999 0C24.131 0 21.3999 2.73106 21.3999 6.1C21.3999 9.46894 24.131 12.2 27.4999 12.2Z" fill="#DC314F"/>
<path d="M27.5 12.3C24.5 12.3 21.7 13.5 19.6 15.6C17.5 17.7 16.3 20.6 16.3 23.5L10.2 17.4C13.2 17.4 16 16.2 18.1 14.1C20.2 12 21.4 9.10001 21.4 6.20001L27.5 12.3Z" fill="#DC314F"/>
<path d="M27.5 12.3C24.5 12.3 21.7 13.5 19.6 15.6C17.5 17.7 16.3 20.6 16.3 23.5L10.2 17.4C13.2 17.4 16 16.2 18.1 14.1C20.2 12 21.4 9.10001 21.4 6.20001L27.5 12.3Z" fill="#DC314F"/>
<path d="M27.4999 46.9C30.8688 46.9 33.5999 44.1689 33.5999 40.8C33.5999 37.4311 30.8688 34.7 27.4999 34.7C24.131 34.7 21.3999 37.4311 21.3999 40.8C21.3999 44.1689 24.131 46.9 27.4999 46.9Z" fill="#DC314F"/>
<path d="M27.4999 46.9C30.8688 46.9 33.5999 44.1689 33.5999 40.8C33.5999 37.4311 30.8688 34.7 27.4999 34.7C24.131 34.7 21.3999 37.4311 21.3999 40.8C21.3999 44.1689 24.131 46.9 27.4999 46.9Z" fill="#DC314F"/>
<path d="M44.8 29.6C48.1689 29.6 50.9 26.869 50.9 23.5C50.9 20.1311 48.1689 17.4 44.8 17.4C41.431 17.4 38.7 20.1311 38.7 23.5C38.7 26.869 41.431 29.6 44.8 29.6Z" fill="#DC314F"/>
<path d="M44.8 29.6C48.1689 29.6 50.9 26.869 50.9 23.5C50.9 20.1311 48.1689 17.4 44.8 17.4C41.431 17.4 38.7 20.1311 38.7 23.5C38.7 26.869 41.431 29.6 44.8 29.6Z" fill="#DC314F"/>
<path d="M44.8 29.6C41.8 29.6 39 30.8 36.9 32.9C34.8 35 33.6 37.9 33.6 40.8L27.5 34.7C30.5 34.7 33.3 33.5 35.4 31.4C37.5 29.3 38.7 26.4 38.7 23.5L44.8 29.6Z" fill="#DC314F"/>
<path d="M44.8 29.6C41.8 29.6 39 30.8 36.9 32.9C34.8 35 33.6 37.9 33.6 40.8L27.5 34.7C30.5 34.7 33.3 33.5 35.4 31.4C37.5 29.3 38.7 26.4 38.7 23.5L44.8 29.6Z" fill="#DC314F"/>
<path d="M44.8 12.3C41.8 12.3 39 13.5 36.9 15.6C34.8 17.7 33.6 20.6 33.6 23.5L27.5 17.4C30.5 17.4 33.3 16.2 35.4 14.1C37.5 12 38.7 9.10001 38.7 6.20001L44.8 12.3Z" fill="#FF7C59"/>
<path d="M44.8 12.3C41.8 12.3 39 13.5 36.9 15.6C34.8 17.7 33.6 20.6 33.6 23.5L27.5 17.4C30.5 17.4 33.3 16.2 35.4 14.1C37.5 12 38.7 9.10001 38.7 6.20001L44.8 12.3Z" fill="#FF7C59"/>
<path d="M62.1 29.6C59.1 29.6 56.3 30.8 54.2 32.9C52.1 35 50.9 37.9 50.9 40.8L44.8 34.7C47.8 34.7 50.6 33.5 52.7 31.4C54.8 29.3 56 26.5 56 23.5L62.1 29.6Z" fill="#FF7C59"/>
<path d="M62.1 29.6C59.1 29.6 56.3 30.8 54.2 32.9C52.1 35 50.9 37.9 50.9 40.8L44.8 34.7C47.8 34.7 50.6 33.5 52.7 31.4C54.8 29.3 56 26.5 56 23.5L62.1 29.6Z" fill="#FF7C59"/>
<path d="M44.8 46.9C48.1689 46.9 50.9 44.1689 50.9 40.8C50.9 37.4311 48.1689 34.7 44.8 34.7C41.431 34.7 38.7 37.4311 38.7 40.8C38.7 44.1689 41.431 46.9 44.8 46.9Z" fill="url(#paint5_linear)"/>
<path d="M10.1 29.6C13.4689 29.6 16.2 26.869 16.2 23.5C16.2 20.1311 13.4689 17.4 10.1 17.4C6.73106 17.4 4 20.1311 4 23.5C4 26.869 6.73106 29.6 10.1 29.6Z" fill="url(#paint6_linear)"/>
<path d="M10.1 29.6C13.4689 29.6 16.2 26.869 16.2 23.5C16.2 20.1311 13.4689 17.4 10.1 17.4C6.73106 17.4 4 20.1311 4 23.5C4 26.869 6.73106 29.6 10.1 29.6Z" fill="url(#paint7_linear)"/>
<path d="M62.1 29.6C65.4689 29.6 68.2 26.869 68.2 23.5C68.2 20.1311 65.4689 17.4 62.1 17.4C58.7311 17.4 56 20.1311 56 23.5C56 26.869 58.7311 29.6 62.1 29.6Z" fill="url(#paint8_linear)"/>
<path d="M62.1 29.6C65.4689 29.6 68.2 26.869 68.2 23.5C68.2 20.1311 65.4689 17.4 62.1 17.4C58.7311 17.4 56 20.1311 56 23.5C56 26.869 58.7311 29.6 62.1 29.6Z" fill="url(#paint9_linear)"/>
<path d="M44.8 12.2C48.1689 12.2 50.9 9.46894 50.9 6.1C50.9 2.73106 48.1689 0 44.8 0C41.431 0 38.7 2.73106 38.7 6.1C38.7 9.46894 41.431 12.2 44.8 12.2Z" fill="url(#paint10_linear)"/>
<path d="M44.8 12.2C48.1689 12.2 50.9 9.46894 50.9 6.1C50.9 2.73106 48.1689 0 44.8 0C41.431 0 38.7 2.73106 38.7 6.1C38.7 9.46894 41.431 12.2 44.8 12.2Z" fill="url(#paint11_linear)"/>
<path d="M27.4999 29.6C30.8688 29.6 33.5999 26.869 33.5999 23.5C33.5999 20.1311 30.8688 17.4 27.4999 17.4C24.131 17.4 21.3999 20.1311 21.3999 23.5C21.3999 26.869 24.131 29.6 27.4999 29.6Z" fill="url(#paint12_linear)"/>
<path d="M27.4999 29.6C30.8688 29.6 33.5999 26.869 33.5999 23.5C33.5999 20.1311 30.8688 17.4 27.4999 17.4C24.131 17.4 21.3999 20.1311 21.3999 23.5C21.3999 26.869 24.131 29.6 27.4999 29.6Z" fill="url(#paint13_linear)"/>
</g>
<defs>
<filter id="filter0_d" x="0" y="0" width="72.2" height="54.9" filterUnits="userSpaceOnUse" color-interpolation-filters="sRGB">
<feFlood flood-opacity="0" result="BackgroundImageFix"/>
<feColorMatrix in="SourceAlpha" type="matrix" values="0 0 0 0 0 0 0 0 0 0 0 0 0 0 0 0 0 0 127 0"/>
<feOffset dy="4"/>
<feGaussianBlur stdDeviation="2"/>
<feColorMatrix type="matrix" values="0 0 0 0 0.3375 0 0 0 0 0.319219 0 0 0 0 0.319219 0 0 0 0.25 0"/>
<feBlend mode="normal" in2="BackgroundImageFix" result="effect1_dropShadow"/>
<feBlend mode="normal" in="SourceGraphic" in2="effect1_dropShadow" result="shape"/>
</filter>
<linearGradient id="paint0_linear" x1="43.7402" y1="47.6203" x2="49.52" y2="41.8401" gradientUnits="userSpaceOnUse">
<stop stop-color="#FF7C59"/>
<stop offset="1" stop-color="#FFAF6C"/>
</linearGradient>
<linearGradient id="paint1_linear" x1="17.4875" y1="23.4575" x2="10.1275" y2="16.1075" gradientUnits="userSpaceOnUse">
<stop offset="0.31" stop-color="#FF7C59"/>
<stop offset="1" stop-color="#F45647"/>
</linearGradient>
<linearGradient id="paint2_linear" x1="56" y1="29.58" x2="68.24" y2="29.58" gradientUnits="userSpaceOnUse">
<stop stop-color="#FF7C59"/>
<stop offset="1" stop-color="#FFAF6C"/>
</linearGradient>
<linearGradient id="paint3_linear" x1="38.67" y1="12.24" x2="50.91" y2="12.24" gradientUnits="userSpaceOnUse">
<stop stop-color="#FF7C59"/>
<stop offset="1" stop-color="#FFAF6C"/>
</linearGradient>
<linearGradient id="paint4_linear" x1="21.3299" y1="29.57" x2="33.5699" y2="29.57" gradientUnits="userSpaceOnUse">
<stop stop-color="#FF7C59"/>
<stop offset="1" stop-color="#FFAF6C"/>
</linearGradient>
<linearGradient id="paint5_linear" x1="43.7402" y1="47.6203" x2="49.52" y2="41.8401" gradientUnits="userSpaceOnUse">
<stop stop-color="#FF7C59"/>
<stop offset="1" stop-color="#FFAF6C"/>
</linearGradient>
<linearGradient id="paint6_linear" x1="17.4875" y1="23.4575" x2="10.1275" y2="16.1075" gradientUnits="userSpaceOnUse">
<stop offset="0.31" stop-color="#FF453B"/>
<stop offset="1" stop-color="#F1034A"/>
</linearGradient>
<linearGradient id="paint7_linear" x1="17.4875" y1="23.4575" x2="10.1275" y2="16.1075" gradientUnits="userSpaceOnUse">
<stop offset="0.31" stop-color="#FF453B"/>
<stop offset="1" stop-color="#F1034A"/>
</linearGradient>
<linearGradient id="paint8_linear" x1="56" y1="29.58" x2="68.24" y2="29.58" gradientUnits="userSpaceOnUse">
<stop stop-color="#FF7C59"/>
<stop offset="1" stop-color="#FFAF6C"/>
</linearGradient>
<linearGradient id="paint9_linear" x1="56" y1="29.58" x2="68.24" y2="29.58" gradientUnits="userSpaceOnUse">
<stop stop-color="#FF7C59"/>
<stop offset="1" stop-color="#FFAF6C"/>
</linearGradient>
<linearGradient id="paint10_linear" x1="38.67" y1="12.24" x2="50.91" y2="12.24" gradientUnits="userSpaceOnUse">
<stop stop-color="#FF7C59"/>
<stop offset="1" stop-color="#FFAF6C"/>
</linearGradient>
<linearGradient id="paint11_linear" x1="38.67" y1="12.24" x2="50.91" y2="12.24" gradientUnits="userSpaceOnUse">
<stop stop-color="#FF7C59"/>
<stop offset="1" stop-color="#FFAF6C"/>
</linearGradient>
<linearGradient id="paint12_linear" x1="21.3299" y1="29.57" x2="33.5699" y2="29.57" gradientUnits="userSpaceOnUse">
<stop stop-color="#FF7C59"/>
<stop offset="1" stop-color="#FFAF6C"/>
</linearGradient>
<linearGradient id="paint13_linear" x1="21.3299" y1="29.57" x2="33.5699" y2="29.57" gradientUnits="userSpaceOnUse">
<stop stop-color="#FF7C59"/>
<stop offset="1" stop-color="#FFAF6C"/>
</linearGradient>
</defs>
</svg>
