<svg width="65" height="47" viewBox="0 0 65 47" fill="none" xmlns="http://www.w3.org/2000/svg">
<path d="M6.1 29.6C9.46894 29.6 12.2 26.8689 12.2 23.5C12.2 20.1311 9.46894 17.4 6.1 17.4C2.73106 17.4 0 20.1311 0 23.5C0 26.8689 2.73106 29.6 6.1 29.6Z" fill="#0082A5"/>
<path d="M23.4999 46.9C26.8688 46.9 29.5999 44.1689 29.5999 40.8C29.5999 37.4311 26.8688 34.7 23.4999 34.7C20.131 34.7 17.3999 37.4311 17.3999 40.8C17.3999 44.1689 20.131 46.9 23.4999 46.9Z" fill="#0082A5"/>
<path d="M17.3001 40.8C17.3001 37.8 16.1001 35 14.0001 32.9C11.9001 30.8 9.0001 29.6 6.1001 29.6L12.2001 23.5C12.2001 26.5 13.4001 29.3 15.5001 31.4C17.6001 33.5 20.4001 34.7 23.4001 34.7L17.3001 40.8Z" fill="#FF453B"/>
<path d="M23.4999 12.2C26.8688 12.2 29.5999 9.46894 29.5999 6.1C29.5999 2.73106 26.8688 0 23.4999 0C20.131 0 17.3999 2.73106 17.3999 6.1C17.3999 9.46894 20.131 12.2 23.4999 12.2Z" fill="#DC314F"/>
<path d="M23.5 12.3C20.5 12.3 17.7 13.5 15.6 15.6C13.5 17.7 12.3 20.6 12.3 23.5L6.19995 17.4C9.19995 17.4 12 16.2 14.1 14.1C16.2 12 17.4 9.10001 17.4 6.20001L23.5 12.3Z" fill="#DC314F"/>
<path d="M23.4999 46.9C26.8688 46.9 29.5999 44.1689 29.5999 40.8C29.5999 37.4311 26.8688 34.7 23.4999 34.7C20.131 34.7 17.3999 37.4311 17.3999 40.8C17.3999 44.1689 20.131 46.9 23.4999 46.9Z" fill="#DC314F"/>
<path d="M40.8 29.6C44.1689 29.6 46.9 26.8689 46.9 23.5C46.9 20.1311 44.1689 17.4 40.8 17.4C37.431 17.4 34.7 20.1311 34.7 23.5C34.7 26.8689 37.431 29.6 40.8 29.6Z" fill="#DC314F"/>
<path d="M40.8 29.6C37.8 29.6 35 30.8 32.9 32.9C30.8 35 29.6 37.9 29.6 40.8L23.5 34.7C26.5 34.7 29.3 33.5 31.4 31.4C33.5 29.3 34.7 26.4 34.7 23.5L40.8 29.6Z" fill="#DC314F"/>
<path d="M40.8 12.3C37.8 12.3 35 13.5 32.9 15.6C30.8 17.7 29.6 20.6 29.6 23.5L23.5 17.4C26.5 17.4 29.3 16.2 31.4 14.1C33.5 12 34.7 9.10001 34.7 6.20001L40.8 12.3Z" fill="#FF7C59"/>
<path d="M58.1 29.6C55.1 29.6 52.3 30.8 50.2 32.9C48.1 35 46.9 37.9 46.9 40.8L40.8 34.7C43.8 34.7 46.6 33.5 48.7 31.4C50.8 29.3 52 26.5 52 23.5L58.1 29.6Z" fill="#FF7C59"/>
<path d="M40.8 46.9C44.1689 46.9 46.9 44.1689 46.9 40.8C46.9 37.4311 44.1689 34.7 40.8 34.7C37.431 34.7 34.7 37.4311 34.7 40.8C34.7 44.1689 37.431 46.9 40.8 46.9Z" fill="url(#paint0_linear)"/>
<path d="M6.1 29.6C9.46894 29.6 12.2 26.8689 12.2 23.5C12.2 20.1311 9.46894 17.4 6.1 17.4C2.73106 17.4 0 20.1311 0 23.5C0 26.8689 2.73106 29.6 6.1 29.6Z" fill="url(#paint1_linear)"/>
<path d="M58.1 29.6C61.4689 29.6 64.2 26.8689 64.2 23.5C64.2 20.1311 61.4689 17.4 58.1 17.4C54.7311 17.4 52 20.1311 52 23.5C52 26.8689 54.7311 29.6 58.1 29.6Z" fill="url(#paint2_linear)"/>
<path d="M40.8 12.2C44.1689 12.2 46.9 9.46894 46.9 6.1C46.9 2.73106 44.1689 0 40.8 0C37.431 0 34.7 2.73106 34.7 6.1C34.7 9.46894 37.431 12.2 40.8 12.2Z" fill="url(#paint3_linear)"/>
<path d="M23.4999 29.6C26.8688 29.6 29.5999 26.8689 29.5999 23.5C29.5999 20.1311 26.8688 17.4 23.4999 17.4C20.131 17.4 17.3999 20.1311 17.3999 23.5C17.3999 26.8689 20.131 29.6 23.4999 29.6Z" fill="url(#paint4_linear)"/>
<path d="M6.1 29.6C9.46894 29.6 12.2 26.8689 12.2 23.5C12.2 20.1311 9.46894 17.4 6.1 17.4C2.73106 17.4 0 20.1311 0 23.5C0 26.8689 2.73106 29.6 6.1 29.6Z" fill="#0082A5"/>
<path d="M23.4999 46.9C26.8688 46.9 29.5999 44.1689 29.5999 40.8C29.5999 37.4311 26.8688 34.7 23.4999 34.7C20.131 34.7 17.3999 37.4311 17.3999 40.8C17.3999 44.1689 20.131 46.9 23.4999 46.9Z" fill="#0082A5"/>
<path d="M17.3001 40.8C17.3001 37.8 16.1001 35 14.0001 32.9C11.9001 30.8 9.0001 29.6 6.1001 29.6L12.2001 23.5C12.2001 26.5 13.4001 29.3 15.5001 31.4C17.6001 33.5 20.4001 34.7 23.4001 34.7L17.3001 40.8Z" fill="#FF453B"/>
<path d="M17.3001 40.8C17.3001 37.8 16.1001 35 14.0001 32.9C11.9001 30.8 9.0001 29.6 6.1001 29.6L12.2001 23.5C12.2001 26.5 13.4001 29.3 15.5001 31.4C17.6001 33.5 20.4001 34.7 23.4001 34.7L17.3001 40.8Z" fill="#FF453B"/>
<path d="M23.4999 12.2C26.8688 12.2 29.5999 9.46894 29.5999 6.1C29.5999 2.73106 26.8688 0 23.4999 0C20.131 0 17.3999 2.73106 17.3999 6.1C17.3999 9.46894 20.131 12.2 23.4999 12.2Z" fill="#DC314F"/>
<path d="M23.4999 12.2C26.8688 12.2 29.5999 9.46894 29.5999 6.1C29.5999 2.73106 26.8688 0 23.4999 0C20.131 0 17.3999 2.73106 17.3999 6.1C17.3999 9.46894 20.131 12.2 23.4999 12.2Z" fill="#DC314F"/>
<path d="M23.5 12.3C20.5 12.3 17.7 13.5 15.6 15.6C13.5 17.7 12.3 20.6 12.3 23.5L6.19995 17.4C9.19995 17.4 12 16.2 14.1 14.1C16.2 12 17.4 9.10001 17.4 6.20001L23.5 12.3Z" fill="#DC314F"/>
<path d="M23.5 12.3C20.5 12.3 17.7 13.5 15.6 15.6C13.5 17.7 12.3 20.6 12.3 23.5L6.19995 17.4C9.19995 17.4 12 16.2 14.1 14.1C16.2 12 17.4 9.10001 17.4 6.20001L23.5 12.3Z" fill="#DC314F"/>
<path d="M23.4999 46.9C26.8688 46.9 29.5999 44.1689 29.5999 40.8C29.5999 37.4311 26.8688 34.7 23.4999 34.7C20.131 34.7 17.3999 37.4311 17.3999 40.8C17.3999 44.1689 20.131 46.9 23.4999 46.9Z" fill="#DC314F"/>
<path d="M23.4999 46.9C26.8688 46.9 29.5999 44.1689 29.5999 40.8C29.5999 37.4311 26.8688 34.7 23.4999 34.7C20.131 34.7 17.3999 37.4311 17.3999 40.8C17.3999 44.1689 20.131 46.9 23.4999 46.9Z" fill="#DC314F"/>
<path d="M40.8 29.6C44.1689 29.6 46.9 26.8689 46.9 23.5C46.9 20.1311 44.1689 17.4 40.8 17.4C37.431 17.4 34.7 20.1311 34.7 23.5C34.7 26.8689 37.431 29.6 40.8 29.6Z" fill="#DC314F"/>
<path d="M40.8 29.6C44.1689 29.6 46.9 26.8689 46.9 23.5C46.9 20.1311 44.1689 17.4 40.8 17.4C37.431 17.4 34.7 20.1311 34.7 23.5C34.7 26.8689 37.431 29.6 40.8 29.6Z" fill="#DC314F"/>
<path d="M40.8 29.6C37.8 29.6 35 30.8 32.9 32.9C30.8 35 29.6 37.9 29.6 40.8L23.5 34.7C26.5 34.7 29.3 33.5 31.4 31.4C33.5 29.3 34.7 26.4 34.7 23.5L40.8 29.6Z" fill="#DC314F"/>
<path d="M40.8 29.6C37.8 29.6 35 30.8 32.9 32.9C30.8 35 29.6 37.9 29.6 40.8L23.5 34.7C26.5 34.7 29.3 33.5 31.4 31.4C33.5 29.3 34.7 26.4 34.7 23.5L40.8 29.6Z" fill="#DC314F"/>
<path d="M40.8 12.3C37.8 12.3 35 13.5 32.9 15.6C30.8 17.7 29.6 20.6 29.6 23.5L23.5 17.4C26.5 17.4 29.3 16.2 31.4 14.1C33.5 12 34.7 9.10001 34.7 6.20001L40.8 12.3Z" fill="#FF7C59"/>
<path d="M40.8 12.3C37.8 12.3 35 13.5 32.9 15.6C30.8 17.7 29.6 20.6 29.6 23.5L23.5 17.4C26.5 17.4 29.3 16.2 31.4 14.1C33.5 12 34.7 9.10001 34.7 6.20001L40.8 12.3Z" fill="#FF7C59"/>
<path d="M58.1 29.6C55.1 29.6 52.3 30.8 50.2 32.9C48.1 35 46.9 37.9 46.9 40.8L40.8 34.7C43.8 34.7 46.6 33.5 48.7 31.4C50.8 29.3 52 26.5 52 23.5L58.1 29.6Z" fill="#FF7C59"/>
<path d="M58.1 29.6C55.1 29.6 52.3 30.8 50.2 32.9C48.1 35 46.9 37.9 46.9 40.8L40.8 34.7C43.8 34.7 46.6 33.5 48.7 31.4C50.8 29.3 52 26.5 52 23.5L58.1 29.6Z" fill="#FF7C59"/>
<path d="M40.8 46.9C44.1689 46.9 46.9 44.1689 46.9 40.8C46.9 37.4311 44.1689 34.7 40.8 34.7C37.431 34.7 34.7 37.4311 34.7 40.8C34.7 44.1689 37.431 46.9 40.8 46.9Z" fill="url(#paint5_linear)"/>
<path d="M6.1 29.6C9.46894 29.6 12.2 26.8689 12.2 23.5C12.2 20.1311 9.46894 17.4 6.1 17.4C2.73106 17.4 0 20.1311 0 23.5C0 26.8689 2.73106 29.6 6.1 29.6Z" fill="url(#paint6_linear)"/>
<path d="M6.1 29.6C9.46894 29.6 12.2 26.8689 12.2 23.5C12.2 20.1311 9.46894 17.4 6.1 17.4C2.73106 17.4 0 20.1311 0 23.5C0 26.8689 2.73106 29.6 6.1 29.6Z" fill="url(#paint7_linear)"/>
<path d="M58.1 29.6C61.4689 29.6 64.2 26.8689 64.2 23.5C64.2 20.1311 61.4689 17.4 58.1 17.4C54.7311 17.4 52 20.1311 52 23.5C52 26.8689 54.7311 29.6 58.1 29.6Z" fill="url(#paint8_linear)"/>
<path d="M58.1 29.6C61.4689 29.6 64.2 26.8689 64.2 23.5C64.2 20.1311 61.4689 17.4 58.1 17.4C54.7311 17.4 52 20.1311 52 23.5C52 26.8689 54.7311 29.6 58.1 29.6Z" fill="url(#paint9_linear)"/>
<path d="M40.8 12.2C44.1689 12.2 46.9 9.46894 46.9 6.1C46.9 2.73106 44.1689 0 40.8 0C37.431 0 34.7 2.73106 34.7 6.1C34.7 9.46894 37.431 12.2 40.8 12.2Z" fill="url(#paint10_linear)"/>
<path d="M40.8 12.2C44.1689 12.2 46.9 9.46894 46.9 6.1C46.9 2.73106 44.1689 0 40.8 0C37.431 0 34.7 2.73106 34.7 6.1C34.7 9.46894 37.431 12.2 40.8 12.2Z" fill="url(#paint11_linear)"/>
<path d="M23.4999 29.6C26.8688 29.6 29.5999 26.8689 29.5999 23.5C29.5999 20.1311 26.8688 17.4 23.4999 17.4C20.131 17.4 17.3999 20.1311 17.3999 23.5C17.3999 26.8689 20.131 29.6 23.4999 29.6Z" fill="url(#paint12_linear)"/>
<path d="M23.4999 29.6C26.8688 29.6 29.5999 26.8689 29.5999 23.5C29.5999 20.1311 26.8688 17.4 23.4999 17.4C20.131 17.4 17.3999 20.1311 17.3999 23.5C17.3999 26.8689 20.131 29.6 23.4999 29.6Z" fill="url(#paint13_linear)"/>
<defs>
<linearGradient id="paint0_linear" x1="39.7402" y1="47.6203" x2="45.52" y2="41.8401" gradientUnits="userSpaceOnUse">
<stop stop-color="#FF7C59"/>
<stop offset="1" stop-color="#FFAF6C"/>
</linearGradient>
<linearGradient id="paint1_linear" x1="13.4875" y1="23.4575" x2="6.1275" y2="16.1075" gradientUnits="userSpaceOnUse">
<stop offset="0.31" stop-color="#FF7C59"/>
<stop offset="1" stop-color="#F45647"/>
</linearGradient>
<linearGradient id="paint2_linear" x1="52" y1="29.58" x2="64.24" y2="29.58" gradientUnits="userSpaceOnUse">
<stop stop-color="#FF7C59"/>
<stop offset="1" stop-color="#FFAF6C"/>
</linearGradient>
<linearGradient id="paint3_linear" x1="34.67" y1="12.24" x2="46.91" y2="12.24" gradientUnits="userSpaceOnUse">
<stop stop-color="#FF7C59"/>
<stop offset="1" stop-color="#FFAF6C"/>
</linearGradient>
<linearGradient id="paint4_linear" x1="17.3299" y1="29.57" x2="29.5699" y2="29.57" gradientUnits="userSpaceOnUse">
<stop stop-color="#FF7C59"/>
<stop offset="1" stop-color="#FFAF6C"/>
</linearGradient>
<linearGradient id="paint5_linear" x1="39.7402" y1="47.6203" x2="45.52" y2="41.8401" gradientUnits="userSpaceOnUse">
<stop stop-color="#FF7C59"/>
<stop offset="1" stop-color="#FFAF6C"/>
</linearGradient>
<linearGradient id="paint6_linear" x1="13.4875" y1="23.4575" x2="6.1275" y2="16.1075" gradientUnits="userSpaceOnUse">
<stop offset="0.31" stop-color="#FF453B"/>
<stop offset="1" stop-color="#F1034A"/>
</linearGradient>
<linearGradient id="paint7_linear" x1="13.4875" y1="23.4575" x2="6.1275" y2="16.1075" gradientUnits="userSpaceOnUse">
<stop offset="0.31" stop-color="#FF453B"/>
<stop offset="1" stop-color="#F1034A"/>
</linearGradient>
<linearGradient id="paint8_linear" x1="52" y1="29.58" x2="64.24" y2="29.58" gradientUnits="userSpaceOnUse">
<stop stop-color="#FF7C59"/>
<stop offset="1" stop-color="#FFAF6C"/>
</linearGradient>
<linearGradient id="paint9_linear" x1="52" y1="29.58" x2="64.24" y2="29.58" gradientUnits="userSpaceOnUse">
<stop stop-color="#FF7C59"/>
<stop offset="1" stop-color="#FFAF6C"/>
</linearGradient>
<linearGradient id="paint10_linear" x1="34.67" y1="12.24" x2="46.91" y2="12.24" gradientUnits="userSpaceOnUse">
<stop stop-color="#FF7C59"/>
<stop offset="1" stop-color="#FFAF6C"/>
</linearGradient>
<linearGradient id="paint11_linear" x1="34.67" y1="12.24" x2="46.91" y2="12.24" gradientUnits="userSpaceOnUse">
<stop stop-color="#FF7C59"/>
<stop offset="1" stop-color="#FFAF6C"/>
</linearGradient>
<linearGradient id="paint12_linear" x1="17.3299" y1="29.57" x2="29.5699" y2="29.57" gradientUnits="userSpaceOnUse">
<stop stop-color="#FF7C59"/>
<stop offset="1" stop-color="#FFAF6C"/>
</linearGradient>
<linearGradient id="paint13_linear" x1="17.3299" y1="29.57" x2="29.5699" y2="29.57" gradientUnits="userSpaceOnUse">
<stop stop-color="#FF7C59"/>
<stop offset="1" stop-color="#FFAF6C"/>
</linearGradient>
</defs>
</svg>
