<svg width="66" height="66" viewBox="0 0 66 66" fill="none" xmlns="http://www.w3.org/2000/svg">
<g filter="url(#filter0_d)">
<circle cx="33" cy="29" r="29" fill="#001421"/>
</g>
<path d="M7.1 35.6C10.4689 35.6 13.2 32.869 13.2 29.5C13.2 26.1311 10.4689 23.4 7.1 23.4C3.73106 23.4 1 26.1311 1 29.5C1 32.869 3.73106 35.6 7.1 35.6Z" fill="#0082A5"/>
<path d="M24.4999 52.9C27.8688 52.9 30.5999 50.1689 30.5999 46.8C30.5999 43.4311 27.8688 40.7 24.4999 40.7C21.131 40.7 18.3999 43.4311 18.3999 46.8C18.3999 50.1689 21.131 52.9 24.4999 52.9Z" fill="#0082A5"/>
<path d="M18.3001 46.8C18.3001 43.8 17.1001 41 15.0001 38.9C12.9001 36.8 10.0001 35.6 7.1001 35.6L13.2001 29.5C13.2001 32.5 14.4001 35.3 16.5001 37.4C18.6001 39.5 21.4001 40.7 24.4001 40.7L18.3001 46.8Z" fill="#FF453B"/>
<path d="M24.4999 18.2C27.8688 18.2 30.5999 15.4689 30.5999 12.1C30.5999 8.73106 27.8688 6 24.4999 6C21.131 6 18.3999 8.73106 18.3999 12.1C18.3999 15.4689 21.131 18.2 24.4999 18.2Z" fill="#DC314F"/>
<path d="M24.5 18.3C21.5 18.3 18.7 19.5 16.6 21.6C14.5 23.7 13.3 26.6 13.3 29.5L7.19995 23.4C10.2 23.4 13 22.2 15.1 20.1C17.2 18 18.4 15.1 18.4 12.2L24.5 18.3Z" fill="#DC314F"/>
<path d="M24.4999 52.9C27.8688 52.9 30.5999 50.1689 30.5999 46.8C30.5999 43.4311 27.8688 40.7 24.4999 40.7C21.131 40.7 18.3999 43.4311 18.3999 46.8C18.3999 50.1689 21.131 52.9 24.4999 52.9Z" fill="#DC314F"/>
<path d="M41.8 35.6C45.1689 35.6 47.9 32.869 47.9 29.5C47.9 26.1311 45.1689 23.4 41.8 23.4C38.431 23.4 35.7 26.1311 35.7 29.5C35.7 32.869 38.431 35.6 41.8 35.6Z" fill="#DC314F"/>
<path d="M41.8 35.6C38.8 35.6 36 36.8 33.9 38.9C31.8 41 30.6 43.9 30.6 46.8L24.5 40.7C27.5 40.7 30.3 39.5 32.4 37.4C34.5 35.3 35.7 32.4 35.7 29.5L41.8 35.6Z" fill="#DC314F"/>
<path d="M41.8 18.3C38.8 18.3 36 19.5 33.9 21.6C31.8 23.7 30.6 26.6 30.6 29.5L24.5 23.4C27.5 23.4 30.3 22.2 32.4 20.1C34.5 18 35.7 15.1 35.7 12.2L41.8 18.3Z" fill="#FF7C59"/>
<path d="M59.1 35.6C56.1 35.6 53.3 36.8 51.2 38.9C49.1 41 47.9 43.9 47.9 46.8L41.8 40.7C44.8 40.7 47.6 39.5 49.7 37.4C51.8 35.3 53 32.5 53 29.5L59.1 35.6Z" fill="#FF7C59"/>
<path d="M41.8 52.9C45.1689 52.9 47.9 50.1689 47.9 46.8C47.9 43.4311 45.1689 40.7 41.8 40.7C38.431 40.7 35.7 43.4311 35.7 46.8C35.7 50.1689 38.431 52.9 41.8 52.9Z" fill="url(#paint0_linear)"/>
<path d="M7.1 35.6C10.4689 35.6 13.2 32.869 13.2 29.5C13.2 26.1311 10.4689 23.4 7.1 23.4C3.73106 23.4 1 26.1311 1 29.5C1 32.869 3.73106 35.6 7.1 35.6Z" fill="url(#paint1_linear)"/>
<path d="M59.1 35.6C62.4689 35.6 65.2 32.869 65.2 29.5C65.2 26.1311 62.4689 23.4 59.1 23.4C55.7311 23.4 53 26.1311 53 29.5C53 32.869 55.7311 35.6 59.1 35.6Z" fill="url(#paint2_linear)"/>
<path d="M41.8 18.2C45.1689 18.2 47.9 15.4689 47.9 12.1C47.9 8.73106 45.1689 6 41.8 6C38.431 6 35.7 8.73106 35.7 12.1C35.7 15.4689 38.431 18.2 41.8 18.2Z" fill="url(#paint3_linear)"/>
<path d="M24.4999 35.6C27.8688 35.6 30.5999 32.869 30.5999 29.5C30.5999 26.1311 27.8688 23.4 24.4999 23.4C21.131 23.4 18.3999 26.1311 18.3999 29.5C18.3999 32.869 21.131 35.6 24.4999 35.6Z" fill="url(#paint4_linear)"/>
<path d="M7.1 35.6C10.4689 35.6 13.2 32.869 13.2 29.5C13.2 26.1311 10.4689 23.4 7.1 23.4C3.73106 23.4 1 26.1311 1 29.5C1 32.869 3.73106 35.6 7.1 35.6Z" fill="#0082A5"/>
<path d="M24.4999 52.9C27.8688 52.9 30.5999 50.1689 30.5999 46.8C30.5999 43.4311 27.8688 40.7 24.4999 40.7C21.131 40.7 18.3999 43.4311 18.3999 46.8C18.3999 50.1689 21.131 52.9 24.4999 52.9Z" fill="#0082A5"/>
<path d="M18.3001 46.8C18.3001 43.8 17.1001 41 15.0001 38.9C12.9001 36.8 10.0001 35.6 7.1001 35.6L13.2001 29.5C13.2001 32.5 14.4001 35.3 16.5001 37.4C18.6001 39.5 21.4001 40.7 24.4001 40.7L18.3001 46.8Z" fill="#FF453B"/>
<path d="M18.3001 46.8C18.3001 43.8 17.1001 41 15.0001 38.9C12.9001 36.8 10.0001 35.6 7.1001 35.6L13.2001 29.5C13.2001 32.5 14.4001 35.3 16.5001 37.4C18.6001 39.5 21.4001 40.7 24.4001 40.7L18.3001 46.8Z" fill="#FF453B"/>
<path d="M24.4999 18.2C27.8688 18.2 30.5999 15.4689 30.5999 12.1C30.5999 8.73106 27.8688 6 24.4999 6C21.131 6 18.3999 8.73106 18.3999 12.1C18.3999 15.4689 21.131 18.2 24.4999 18.2Z" fill="#DC314F"/>
<path d="M24.4999 18.2C27.8688 18.2 30.5999 15.4689 30.5999 12.1C30.5999 8.73106 27.8688 6 24.4999 6C21.131 6 18.3999 8.73106 18.3999 12.1C18.3999 15.4689 21.131 18.2 24.4999 18.2Z" fill="#DC314F"/>
<path d="M24.5 18.3C21.5 18.3 18.7 19.5 16.6 21.6C14.5 23.7 13.3 26.6 13.3 29.5L7.19995 23.4C10.2 23.4 13 22.2 15.1 20.1C17.2 18 18.4 15.1 18.4 12.2L24.5 18.3Z" fill="#DC314F"/>
<path d="M24.5 18.3C21.5 18.3 18.7 19.5 16.6 21.6C14.5 23.7 13.3 26.6 13.3 29.5L7.19995 23.4C10.2 23.4 13 22.2 15.1 20.1C17.2 18 18.4 15.1 18.4 12.2L24.5 18.3Z" fill="#DC314F"/>
<path d="M24.4999 52.9C27.8688 52.9 30.5999 50.1689 30.5999 46.8C30.5999 43.4311 27.8688 40.7 24.4999 40.7C21.131 40.7 18.3999 43.4311 18.3999 46.8C18.3999 50.1689 21.131 52.9 24.4999 52.9Z" fill="#DC314F"/>
<path d="M24.4999 52.9C27.8688 52.9 30.5999 50.1689 30.5999 46.8C30.5999 43.4311 27.8688 40.7 24.4999 40.7C21.131 40.7 18.3999 43.4311 18.3999 46.8C18.3999 50.1689 21.131 52.9 24.4999 52.9Z" fill="#DC314F"/>
<path d="M41.8 35.6C45.1689 35.6 47.9 32.869 47.9 29.5C47.9 26.1311 45.1689 23.4 41.8 23.4C38.431 23.4 35.7 26.1311 35.7 29.5C35.7 32.869 38.431 35.6 41.8 35.6Z" fill="#DC314F"/>
<path d="M41.8 35.6C45.1689 35.6 47.9 32.869 47.9 29.5C47.9 26.1311 45.1689 23.4 41.8 23.4C38.431 23.4 35.7 26.1311 35.7 29.5C35.7 32.869 38.431 35.6 41.8 35.6Z" fill="#DC314F"/>
<path d="M41.8 35.6C38.8 35.6 36 36.8 33.9 38.9C31.8 41 30.6 43.9 30.6 46.8L24.5 40.7C27.5 40.7 30.3 39.5 32.4 37.4C34.5 35.3 35.7 32.4 35.7 29.5L41.8 35.6Z" fill="#DC314F"/>
<path d="M41.8 35.6C38.8 35.6 36 36.8 33.9 38.9C31.8 41 30.6 43.9 30.6 46.8L24.5 40.7C27.5 40.7 30.3 39.5 32.4 37.4C34.5 35.3 35.7 32.4 35.7 29.5L41.8 35.6Z" fill="#DC314F"/>
<path d="M41.8 18.3C38.8 18.3 36 19.5 33.9 21.6C31.8 23.7 30.6 26.6 30.6 29.5L24.5 23.4C27.5 23.4 30.3 22.2 32.4 20.1C34.5 18 35.7 15.1 35.7 12.2L41.8 18.3Z" fill="#FF7C59"/>
<path d="M41.8 18.3C38.8 18.3 36 19.5 33.9 21.6C31.8 23.7 30.6 26.6 30.6 29.5L24.5 23.4C27.5 23.4 30.3 22.2 32.4 20.1C34.5 18 35.7 15.1 35.7 12.2L41.8 18.3Z" fill="#FF7C59"/>
<path d="M59.1 35.6C56.1 35.6 53.3 36.8 51.2 38.9C49.1 41 47.9 43.9 47.9 46.8L41.8 40.7C44.8 40.7 47.6 39.5 49.7 37.4C51.8 35.3 53 32.5 53 29.5L59.1 35.6Z" fill="#FF7C59"/>
<path d="M59.1 35.6C56.1 35.6 53.3 36.8 51.2 38.9C49.1 41 47.9 43.9 47.9 46.8L41.8 40.7C44.8 40.7 47.6 39.5 49.7 37.4C51.8 35.3 53 32.5 53 29.5L59.1 35.6Z" fill="#FF7C59"/>
<path d="M41.8 52.9C45.1689 52.9 47.9 50.1689 47.9 46.8C47.9 43.4311 45.1689 40.7 41.8 40.7C38.431 40.7 35.7 43.4311 35.7 46.8C35.7 50.1689 38.431 52.9 41.8 52.9Z" fill="url(#paint5_linear)"/>
<path d="M7.1 35.6C10.4689 35.6 13.2 32.869 13.2 29.5C13.2 26.1311 10.4689 23.4 7.1 23.4C3.73106 23.4 1 26.1311 1 29.5C1 32.869 3.73106 35.6 7.1 35.6Z" fill="url(#paint6_linear)"/>
<path d="M7.1 35.6C10.4689 35.6 13.2 32.869 13.2 29.5C13.2 26.1311 10.4689 23.4 7.1 23.4C3.73106 23.4 1 26.1311 1 29.5C1 32.869 3.73106 35.6 7.1 35.6Z" fill="url(#paint7_linear)"/>
<path d="M59.1 35.6C62.4689 35.6 65.2 32.869 65.2 29.5C65.2 26.1311 62.4689 23.4 59.1 23.4C55.7311 23.4 53 26.1311 53 29.5C53 32.869 55.7311 35.6 59.1 35.6Z" fill="url(#paint8_linear)"/>
<path d="M59.1 35.6C62.4689 35.6 65.2 32.869 65.2 29.5C65.2 26.1311 62.4689 23.4 59.1 23.4C55.7311 23.4 53 26.1311 53 29.5C53 32.869 55.7311 35.6 59.1 35.6Z" fill="url(#paint9_linear)"/>
<path d="M41.8 18.2C45.1689 18.2 47.9 15.4689 47.9 12.1C47.9 8.73106 45.1689 6 41.8 6C38.431 6 35.7 8.73106 35.7 12.1C35.7 15.4689 38.431 18.2 41.8 18.2Z" fill="url(#paint10_linear)"/>
<path d="M41.8 18.2C45.1689 18.2 47.9 15.4689 47.9 12.1C47.9 8.73106 45.1689 6 41.8 6C38.431 6 35.7 8.73106 35.7 12.1C35.7 15.4689 38.431 18.2 41.8 18.2Z" fill="url(#paint11_linear)"/>
<path d="M24.4999 35.6C27.8688 35.6 30.5999 32.869 30.5999 29.5C30.5999 26.1311 27.8688 23.4 24.4999 23.4C21.131 23.4 18.3999 26.1311 18.3999 29.5C18.3999 32.869 21.131 35.6 24.4999 35.6Z" fill="url(#paint12_linear)"/>
<path d="M24.4999 35.6C27.8688 35.6 30.5999 32.869 30.5999 29.5C30.5999 26.1311 27.8688 23.4 24.4999 23.4C21.131 23.4 18.3999 26.1311 18.3999 29.5C18.3999 32.869 21.131 35.6 24.4999 35.6Z" fill="url(#paint13_linear)"/>
<defs>
<filter id="filter0_d" x="0" y="0" width="66" height="66" filterUnits="userSpaceOnUse" color-interpolation-filters="sRGB">
<feFlood flood-opacity="0" result="BackgroundImageFix"/>
<feColorMatrix in="SourceAlpha" type="matrix" values="0 0 0 0 0 0 0 0 0 0 0 0 0 0 0 0 0 0 127 0"/>
<feOffset dy="4"/>
<feGaussianBlur stdDeviation="2"/>
<feColorMatrix type="matrix" values="0 0 0 0 0 0 0 0 0 0 0 0 0 0 0 0 0 0 0.25 0"/>
<feBlend mode="normal" in2="BackgroundImageFix" result="effect1_dropShadow"/>
<feBlend mode="normal" in="SourceGraphic" in2="effect1_dropShadow" result="shape"/>
</filter>
<linearGradient id="paint0_linear" x1="40.7402" y1="53.6203" x2="46.52" y2="47.8401" gradientUnits="userSpaceOnUse">
<stop stop-color="#FF7C59"/>
<stop offset="1" stop-color="#FFAF6C"/>
</linearGradient>
<linearGradient id="paint1_linear" x1="14.4875" y1="29.4575" x2="7.1275" y2="22.1075" gradientUnits="userSpaceOnUse">
<stop offset="0.31" stop-color="#FF7C59"/>
<stop offset="1" stop-color="#F45647"/>
</linearGradient>
<linearGradient id="paint2_linear" x1="53" y1="35.58" x2="65.24" y2="35.58" gradientUnits="userSpaceOnUse">
<stop stop-color="#FF7C59"/>
<stop offset="1" stop-color="#FFAF6C"/>
</linearGradient>
<linearGradient id="paint3_linear" x1="35.67" y1="18.24" x2="47.91" y2="18.24" gradientUnits="userSpaceOnUse">
<stop stop-color="#FF7C59"/>
<stop offset="1" stop-color="#FFAF6C"/>
</linearGradient>
<linearGradient id="paint4_linear" x1="18.3299" y1="35.57" x2="30.5699" y2="35.57" gradientUnits="userSpaceOnUse">
<stop stop-color="#FF7C59"/>
<stop offset="1" stop-color="#FFAF6C"/>
</linearGradient>
<linearGradient id="paint5_linear" x1="40.7402" y1="53.6203" x2="46.52" y2="47.8401" gradientUnits="userSpaceOnUse">
<stop stop-color="#FF7C59"/>
<stop offset="1" stop-color="#FFAF6C"/>
</linearGradient>
<linearGradient id="paint6_linear" x1="14.4875" y1="29.4575" x2="7.1275" y2="22.1075" gradientUnits="userSpaceOnUse">
<stop offset="0.31" stop-color="#FF453B"/>
<stop offset="1" stop-color="#F1034A"/>
</linearGradient>
<linearGradient id="paint7_linear" x1="14.4875" y1="29.4575" x2="7.1275" y2="22.1075" gradientUnits="userSpaceOnUse">
<stop offset="0.31" stop-color="#FF453B"/>
<stop offset="1" stop-color="#F1034A"/>
</linearGradient>
<linearGradient id="paint8_linear" x1="53" y1="35.58" x2="65.24" y2="35.58" gradientUnits="userSpaceOnUse">
<stop stop-color="#FF7C59"/>
<stop offset="1" stop-color="#FFAF6C"/>
</linearGradient>
<linearGradient id="paint9_linear" x1="53" y1="35.58" x2="65.24" y2="35.58" gradientUnits="userSpaceOnUse">
<stop stop-color="#FF7C59"/>
<stop offset="1" stop-color="#FFAF6C"/>
</linearGradient>
<linearGradient id="paint10_linear" x1="35.67" y1="18.24" x2="47.91" y2="18.24" gradientUnits="userSpaceOnUse">
<stop stop-color="#FF7C59"/>
<stop offset="1" stop-color="#FFAF6C"/>
</linearGradient>
<linearGradient id="paint11_linear" x1="35.67" y1="18.24" x2="47.91" y2="18.24" gradientUnits="userSpaceOnUse">
<stop stop-color="#FF7C59"/>
<stop offset="1" stop-color="#FFAF6C"/>
</linearGradient>
<linearGradient id="paint12_linear" x1="18.3299" y1="35.57" x2="30.5699" y2="35.57" gradientUnits="userSpaceOnUse">
<stop stop-color="#FF7C59"/>
<stop offset="1" stop-color="#FFAF6C"/>
</linearGradient>
<linearGradient id="paint13_linear" x1="18.3299" y1="35.57" x2="30.5699" y2="35.57" gradientUnits="userSpaceOnUse">
<stop stop-color="#FF7C59"/>
<stop offset="1" stop-color="#FFAF6C"/>
</linearGradient>
</defs>
</svg>
