<svg width="67" height="67" viewBox="0 0 67 67" fill="none" xmlns="http://www.w3.org/2000/svg">
<g filter="url(#filter0_d)">
<circle cx="33.5" cy="29.5" r="29.5" fill="white"/>
</g>
<path d="M7.1 34.6C10.4689 34.6 13.2 31.869 13.2 28.5C13.2 25.1311 10.4689 22.4 7.1 22.4C3.73106 22.4 1 25.1311 1 28.5C1 31.869 3.73106 34.6 7.1 34.6Z" fill="#0082A5"/>
<path d="M24.4999 51.9C27.8688 51.9 30.5999 49.1689 30.5999 45.8C30.5999 42.4311 27.8688 39.7 24.4999 39.7C21.131 39.7 18.3999 42.4311 18.3999 45.8C18.3999 49.1689 21.131 51.9 24.4999 51.9Z" fill="#0082A5"/>
<path d="M18.3001 45.8C18.3001 42.8 17.1001 40 15.0001 37.9C12.9001 35.8 10.0001 34.6 7.1001 34.6L13.2001 28.5C13.2001 31.5 14.4001 34.3 16.5001 36.4C18.6001 38.5 21.4001 39.7 24.4001 39.7L18.3001 45.8Z" fill="#FF453B"/>
<path d="M24.4999 17.2C27.8688 17.2 30.5999 14.4689 30.5999 11.1C30.5999 7.73106 27.8688 5 24.4999 5C21.131 5 18.3999 7.73106 18.3999 11.1C18.3999 14.4689 21.131 17.2 24.4999 17.2Z" fill="#DC314F"/>
<path d="M24.5 17.3C21.5 17.3 18.7 18.5 16.6 20.6C14.5 22.7 13.3 25.6 13.3 28.5L7.19995 22.4C10.2 22.4 13 21.2 15.1 19.1C17.2 17 18.4 14.1 18.4 11.2L24.5 17.3Z" fill="#DC314F"/>
<path d="M24.4999 51.9C27.8688 51.9 30.5999 49.1689 30.5999 45.8C30.5999 42.4311 27.8688 39.7 24.4999 39.7C21.131 39.7 18.3999 42.4311 18.3999 45.8C18.3999 49.1689 21.131 51.9 24.4999 51.9Z" fill="#DC314F"/>
<path d="M41.8 34.6C45.1689 34.6 47.9 31.869 47.9 28.5C47.9 25.1311 45.1689 22.4 41.8 22.4C38.431 22.4 35.7 25.1311 35.7 28.5C35.7 31.869 38.431 34.6 41.8 34.6Z" fill="#DC314F"/>
<path d="M41.8 34.6C38.8 34.6 36 35.8 33.9 37.9C31.8 40 30.6 42.9 30.6 45.8L24.5 39.7C27.5 39.7 30.3 38.5 32.4 36.4C34.5 34.3 35.7 31.4 35.7 28.5L41.8 34.6Z" fill="#DC314F"/>
<path d="M41.8 17.3C38.8 17.3 36 18.5 33.9 20.6C31.8 22.7 30.6 25.6 30.6 28.5L24.5 22.4C27.5 22.4 30.3 21.2 32.4 19.1C34.5 17 35.7 14.1 35.7 11.2L41.8 17.3Z" fill="#FF7C59"/>
<path d="M59.1 34.6C56.1 34.6 53.3 35.8 51.2 37.9C49.1 40 47.9 42.9 47.9 45.8L41.8 39.7C44.8 39.7 47.6 38.5 49.7 36.4C51.8 34.3 53 31.5 53 28.5L59.1 34.6Z" fill="#FF7C59"/>
<path d="M41.8 51.9C45.1689 51.9 47.9 49.1689 47.9 45.8C47.9 42.4311 45.1689 39.7 41.8 39.7C38.431 39.7 35.7 42.4311 35.7 45.8C35.7 49.1689 38.431 51.9 41.8 51.9Z" fill="url(#paint0_linear)"/>
<path d="M7.1 34.6C10.4689 34.6 13.2 31.869 13.2 28.5C13.2 25.1311 10.4689 22.4 7.1 22.4C3.73106 22.4 1 25.1311 1 28.5C1 31.869 3.73106 34.6 7.1 34.6Z" fill="url(#paint1_linear)"/>
<path d="M59.1 34.6C62.4689 34.6 65.2 31.869 65.2 28.5C65.2 25.1311 62.4689 22.4 59.1 22.4C55.7311 22.4 53 25.1311 53 28.5C53 31.869 55.7311 34.6 59.1 34.6Z" fill="url(#paint2_linear)"/>
<path d="M41.8 17.2C45.1689 17.2 47.9 14.4689 47.9 11.1C47.9 7.73106 45.1689 5 41.8 5C38.431 5 35.7 7.73106 35.7 11.1C35.7 14.4689 38.431 17.2 41.8 17.2Z" fill="url(#paint3_linear)"/>
<path d="M24.4999 34.6C27.8688 34.6 30.5999 31.869 30.5999 28.5C30.5999 25.1311 27.8688 22.4 24.4999 22.4C21.131 22.4 18.3999 25.1311 18.3999 28.5C18.3999 31.869 21.131 34.6 24.4999 34.6Z" fill="url(#paint4_linear)"/>
<path d="M7.1 34.6C10.4689 34.6 13.2 31.869 13.2 28.5C13.2 25.1311 10.4689 22.4 7.1 22.4C3.73106 22.4 1 25.1311 1 28.5C1 31.869 3.73106 34.6 7.1 34.6Z" fill="#0082A5"/>
<path d="M24.4999 51.9C27.8688 51.9 30.5999 49.1689 30.5999 45.8C30.5999 42.4311 27.8688 39.7 24.4999 39.7C21.131 39.7 18.3999 42.4311 18.3999 45.8C18.3999 49.1689 21.131 51.9 24.4999 51.9Z" fill="#0082A5"/>
<path d="M18.3001 45.8C18.3001 42.8 17.1001 40 15.0001 37.9C12.9001 35.8 10.0001 34.6 7.1001 34.6L13.2001 28.5C13.2001 31.5 14.4001 34.3 16.5001 36.4C18.6001 38.5 21.4001 39.7 24.4001 39.7L18.3001 45.8Z" fill="#FF453B"/>
<path d="M18.3001 45.8C18.3001 42.8 17.1001 40 15.0001 37.9C12.9001 35.8 10.0001 34.6 7.1001 34.6L13.2001 28.5C13.2001 31.5 14.4001 34.3 16.5001 36.4C18.6001 38.5 21.4001 39.7 24.4001 39.7L18.3001 45.8Z" fill="#FF453B"/>
<path d="M24.4999 17.2C27.8688 17.2 30.5999 14.4689 30.5999 11.1C30.5999 7.73106 27.8688 5 24.4999 5C21.131 5 18.3999 7.73106 18.3999 11.1C18.3999 14.4689 21.131 17.2 24.4999 17.2Z" fill="#DC314F"/>
<path d="M24.4999 17.2C27.8688 17.2 30.5999 14.4689 30.5999 11.1C30.5999 7.73106 27.8688 5 24.4999 5C21.131 5 18.3999 7.73106 18.3999 11.1C18.3999 14.4689 21.131 17.2 24.4999 17.2Z" fill="#DC314F"/>
<path d="M24.5 17.3C21.5 17.3 18.7 18.5 16.6 20.6C14.5 22.7 13.3 25.6 13.3 28.5L7.19995 22.4C10.2 22.4 13 21.2 15.1 19.1C17.2 17 18.4 14.1 18.4 11.2L24.5 17.3Z" fill="#DC314F"/>
<path d="M24.5 17.3C21.5 17.3 18.7 18.5 16.6 20.6C14.5 22.7 13.3 25.6 13.3 28.5L7.19995 22.4C10.2 22.4 13 21.2 15.1 19.1C17.2 17 18.4 14.1 18.4 11.2L24.5 17.3Z" fill="#DC314F"/>
<path d="M24.4999 51.9C27.8688 51.9 30.5999 49.1689 30.5999 45.8C30.5999 42.4311 27.8688 39.7 24.4999 39.7C21.131 39.7 18.3999 42.4311 18.3999 45.8C18.3999 49.1689 21.131 51.9 24.4999 51.9Z" fill="#DC314F"/>
<path d="M24.4999 51.9C27.8688 51.9 30.5999 49.1689 30.5999 45.8C30.5999 42.4311 27.8688 39.7 24.4999 39.7C21.131 39.7 18.3999 42.4311 18.3999 45.8C18.3999 49.1689 21.131 51.9 24.4999 51.9Z" fill="#DC314F"/>
<path d="M41.8 34.6C45.1689 34.6 47.9 31.869 47.9 28.5C47.9 25.1311 45.1689 22.4 41.8 22.4C38.431 22.4 35.7 25.1311 35.7 28.5C35.7 31.869 38.431 34.6 41.8 34.6Z" fill="#DC314F"/>
<path d="M41.8 34.6C45.1689 34.6 47.9 31.869 47.9 28.5C47.9 25.1311 45.1689 22.4 41.8 22.4C38.431 22.4 35.7 25.1311 35.7 28.5C35.7 31.869 38.431 34.6 41.8 34.6Z" fill="#DC314F"/>
<path d="M41.8 34.6C38.8 34.6 36 35.8 33.9 37.9C31.8 40 30.6 42.9 30.6 45.8L24.5 39.7C27.5 39.7 30.3 38.5 32.4 36.4C34.5 34.3 35.7 31.4 35.7 28.5L41.8 34.6Z" fill="#DC314F"/>
<path d="M41.8 34.6C38.8 34.6 36 35.8 33.9 37.9C31.8 40 30.6 42.9 30.6 45.8L24.5 39.7C27.5 39.7 30.3 38.5 32.4 36.4C34.5 34.3 35.7 31.4 35.7 28.5L41.8 34.6Z" fill="#DC314F"/>
<path d="M41.8 17.3C38.8 17.3 36 18.5 33.9 20.6C31.8 22.7 30.6 25.6 30.6 28.5L24.5 22.4C27.5 22.4 30.3 21.2 32.4 19.1C34.5 17 35.7 14.1 35.7 11.2L41.8 17.3Z" fill="#FF7C59"/>
<path d="M41.8 17.3C38.8 17.3 36 18.5 33.9 20.6C31.8 22.7 30.6 25.6 30.6 28.5L24.5 22.4C27.5 22.4 30.3 21.2 32.4 19.1C34.5 17 35.7 14.1 35.7 11.2L41.8 17.3Z" fill="#FF7C59"/>
<path d="M59.1 34.6C56.1 34.6 53.3 35.8 51.2 37.9C49.1 40 47.9 42.9 47.9 45.8L41.8 39.7C44.8 39.7 47.6 38.5 49.7 36.4C51.8 34.3 53 31.5 53 28.5L59.1 34.6Z" fill="#FF7C59"/>
<path d="M59.1 34.6C56.1 34.6 53.3 35.8 51.2 37.9C49.1 40 47.9 42.9 47.9 45.8L41.8 39.7C44.8 39.7 47.6 38.5 49.7 36.4C51.8 34.3 53 31.5 53 28.5L59.1 34.6Z" fill="#FF7C59"/>
<path d="M41.8 51.9C45.1689 51.9 47.9 49.1689 47.9 45.8C47.9 42.4311 45.1689 39.7 41.8 39.7C38.431 39.7 35.7 42.4311 35.7 45.8C35.7 49.1689 38.431 51.9 41.8 51.9Z" fill="url(#paint5_linear)"/>
<path d="M7.1 34.6C10.4689 34.6 13.2 31.869 13.2 28.5C13.2 25.1311 10.4689 22.4 7.1 22.4C3.73106 22.4 1 25.1311 1 28.5C1 31.869 3.73106 34.6 7.1 34.6Z" fill="url(#paint6_linear)"/>
<path d="M7.1 34.6C10.4689 34.6 13.2 31.869 13.2 28.5C13.2 25.1311 10.4689 22.4 7.1 22.4C3.73106 22.4 1 25.1311 1 28.5C1 31.869 3.73106 34.6 7.1 34.6Z" fill="url(#paint7_linear)"/>
<path d="M59.1 34.6C62.4689 34.6 65.2 31.869 65.2 28.5C65.2 25.1311 62.4689 22.4 59.1 22.4C55.7311 22.4 53 25.1311 53 28.5C53 31.869 55.7311 34.6 59.1 34.6Z" fill="url(#paint8_linear)"/>
<path d="M59.1 34.6C62.4689 34.6 65.2 31.869 65.2 28.5C65.2 25.1311 62.4689 22.4 59.1 22.4C55.7311 22.4 53 25.1311 53 28.5C53 31.869 55.7311 34.6 59.1 34.6Z" fill="url(#paint9_linear)"/>
<path d="M41.8 17.2C45.1689 17.2 47.9 14.4689 47.9 11.1C47.9 7.73106 45.1689 5 41.8 5C38.431 5 35.7 7.73106 35.7 11.1C35.7 14.4689 38.431 17.2 41.8 17.2Z" fill="url(#paint10_linear)"/>
<path d="M41.8 17.2C45.1689 17.2 47.9 14.4689 47.9 11.1C47.9 7.73106 45.1689 5 41.8 5C38.431 5 35.7 7.73106 35.7 11.1C35.7 14.4689 38.431 17.2 41.8 17.2Z" fill="url(#paint11_linear)"/>
<path d="M24.4999 34.6C27.8688 34.6 30.5999 31.869 30.5999 28.5C30.5999 25.1311 27.8688 22.4 24.4999 22.4C21.131 22.4 18.3999 25.1311 18.3999 28.5C18.3999 31.869 21.131 34.6 24.4999 34.6Z" fill="url(#paint12_linear)"/>
<path d="M24.4999 34.6C27.8688 34.6 30.5999 31.869 30.5999 28.5C30.5999 25.1311 27.8688 22.4 24.4999 22.4C21.131 22.4 18.3999 25.1311 18.3999 28.5C18.3999 31.869 21.131 34.6 24.4999 34.6Z" fill="url(#paint13_linear)"/>
<defs>
<filter id="filter0_d" x="0" y="0" width="67" height="67" filterUnits="userSpaceOnUse" color-interpolation-filters="sRGB">
<feFlood flood-opacity="0" result="BackgroundImageFix"/>
<feColorMatrix in="SourceAlpha" type="matrix" values="0 0 0 0 0 0 0 0 0 0 0 0 0 0 0 0 0 0 127 0"/>
<feOffset dy="4"/>
<feGaussianBlur stdDeviation="2"/>
<feColorMatrix type="matrix" values="0 0 0 0 0 0 0 0 0 0 0 0 0 0 0 0 0 0 0.25 0"/>
<feBlend mode="normal" in2="BackgroundImageFix" result="effect1_dropShadow"/>
<feBlend mode="normal" in="SourceGraphic" in2="effect1_dropShadow" result="shape"/>
</filter>
<linearGradient id="paint0_linear" x1="40.7402" y1="52.6203" x2="46.52" y2="46.8401" gradientUnits="userSpaceOnUse">
<stop stop-color="#FF7C59"/>
<stop offset="1" stop-color="#FFAF6C"/>
</linearGradient>
<linearGradient id="paint1_linear" x1="14.4875" y1="28.4575" x2="7.1275" y2="21.1075" gradientUnits="userSpaceOnUse">
<stop offset="0.31" stop-color="#FF7C59"/>
<stop offset="1" stop-color="#F45647"/>
</linearGradient>
<linearGradient id="paint2_linear" x1="53" y1="34.58" x2="65.24" y2="34.58" gradientUnits="userSpaceOnUse">
<stop stop-color="#FF7C59"/>
<stop offset="1" stop-color="#FFAF6C"/>
</linearGradient>
<linearGradient id="paint3_linear" x1="35.67" y1="17.24" x2="47.91" y2="17.24" gradientUnits="userSpaceOnUse">
<stop stop-color="#FF7C59"/>
<stop offset="1" stop-color="#FFAF6C"/>
</linearGradient>
<linearGradient id="paint4_linear" x1="18.3299" y1="34.57" x2="30.5699" y2="34.57" gradientUnits="userSpaceOnUse">
<stop stop-color="#FF7C59"/>
<stop offset="1" stop-color="#FFAF6C"/>
</linearGradient>
<linearGradient id="paint5_linear" x1="40.7402" y1="52.6203" x2="46.52" y2="46.8401" gradientUnits="userSpaceOnUse">
<stop stop-color="#FF7C59"/>
<stop offset="1" stop-color="#FFAF6C"/>
</linearGradient>
<linearGradient id="paint6_linear" x1="14.4875" y1="28.4575" x2="7.1275" y2="21.1075" gradientUnits="userSpaceOnUse">
<stop offset="0.31" stop-color="#FF453B"/>
<stop offset="1" stop-color="#F1034A"/>
</linearGradient>
<linearGradient id="paint7_linear" x1="14.4875" y1="28.4575" x2="7.1275" y2="21.1075" gradientUnits="userSpaceOnUse">
<stop offset="0.31" stop-color="#FF453B"/>
<stop offset="1" stop-color="#F1034A"/>
</linearGradient>
<linearGradient id="paint8_linear" x1="53" y1="34.58" x2="65.24" y2="34.58" gradientUnits="userSpaceOnUse">
<stop stop-color="#FF7C59"/>
<stop offset="1" stop-color="#FFAF6C"/>
</linearGradient>
<linearGradient id="paint9_linear" x1="53" y1="34.58" x2="65.24" y2="34.58" gradientUnits="userSpaceOnUse">
<stop stop-color="#FF7C59"/>
<stop offset="1" stop-color="#FFAF6C"/>
</linearGradient>
<linearGradient id="paint10_linear" x1="35.67" y1="17.24" x2="47.91" y2="17.24" gradientUnits="userSpaceOnUse">
<stop stop-color="#FF7C59"/>
<stop offset="1" stop-color="#FFAF6C"/>
</linearGradient>
<linearGradient id="paint11_linear" x1="35.67" y1="17.24" x2="47.91" y2="17.24" gradientUnits="userSpaceOnUse">
<stop stop-color="#FF7C59"/>
<stop offset="1" stop-color="#FFAF6C"/>
</linearGradient>
<linearGradient id="paint12_linear" x1="18.3299" y1="34.57" x2="30.5699" y2="34.57" gradientUnits="userSpaceOnUse">
<stop stop-color="#FF7C59"/>
<stop offset="1" stop-color="#FFAF6C"/>
</linearGradient>
<linearGradient id="paint13_linear" x1="18.3299" y1="34.57" x2="30.5699" y2="34.57" gradientUnits="userSpaceOnUse">
<stop stop-color="#FF7C59"/>
<stop offset="1" stop-color="#FFAF6C"/>
</linearGradient>
</defs>
</svg>
